<svg width="512" height="512" viewBox="0 0 512 512" fill="none" xmlns="http://www.w3.org/2000/svg">
<path d="M231.475 1.01012C184.775 5.51012 139.775 23.0101 101.475 51.7101C82.3751 66.1101 60.4751 88.5101 46.1751 108.51L42.4751 113.71L86.1751 138.91L129.975 164.11L132.375 160.81C137.275 154.01 158.175 134.11 166.175 128.61C196.275 107.51 233.275 97.5101 268.275 100.71C299.575 103.71 326.775 114.41 351.475 133.41C358.575 138.91 363.075 140.41 368.275 139.01C373.775 137.51 376.075 135.41 403.175 108.11C424.675 86.5101 427.375 83.4101 428.375 79.3101C430.775 69.8101 427.575 65.1101 409.475 51.5101C364.475 17.6101 309.275 -0.489883 252.975 0.0101172C245.875 0.110117 236.175 0.510117 231.475 1.01012Z" fill="white"/>
<path d="M21.475 152.11C12.575 171.61 4.875 198.81 1.275 224.41C-0.425 236.41 -0.425 274.71 1.275 286.91C3.575 303.11 7.475 319.81 12.375 334.91C17.375 349.91 25.475 369.01 26.675 368.61C27.075 368.51 46.475 357.41 69.975 343.91C106.475 322.91 112.475 319.11 112.075 317.41C111.875 316.31 110.075 310.91 108.075 305.41C101.175 285.51 98.375 263.61 100.275 243.61C101.775 228.01 103.775 218.91 108.075 206.41C110.075 200.91 111.775 195.51 112.075 194.41C112.475 192.71 106.475 188.91 69.975 167.91C46.575 154.41 26.975 143.31 26.575 143.11C26.175 143.01 23.875 147.01 21.475 152.11Z" fill="white"/>
<path d="M279.575 211.91C274.675 213.11 271.275 215.91 268.675 221.01C266.375 225.41 266.375 225.51 266.675 263.01L266.975 300.61L269.775 304.21C275.475 311.81 271.875 311.41 339.775 311.71C373.175 311.81 400.475 312.21 400.475 312.51C400.475 314.51 389.675 334.91 384.375 342.91C378.375 352.01 358.675 373.11 350.675 379.11L347.275 381.61L372.075 424.51C385.675 448.11 396.875 467.61 397.075 467.81C397.275 468.01 401.575 464.91 406.775 461.01C440.275 435.81 465.875 405.11 484.875 367.21C503.775 329.31 512.775 288.31 511.075 246.91C510.675 237.81 510.075 228.41 509.575 226.01C508.175 218.81 503.075 213.51 495.875 211.91C491.075 210.71 284.375 210.81 279.575 211.91Z" fill="white"/>
<path d="M86.975 372.41C63.875 385.81 44.575 397.01 44.075 397.21C41.475 398.11 59.475 421.11 74.875 436.51C149.875 511.41 261.375 532.71 356.875 490.21C362.775 487.51 367.675 484.91 367.575 484.41C367.575 483.81 356.575 464.41 343.275 441.11C322.375 404.81 318.675 398.91 316.975 399.31C315.875 399.51 310.475 401.31 304.975 403.31C258.875 419.51 207.275 412.01 165.975 383.11C157.175 376.91 139.475 360.31 133.775 352.71C131.675 350.11 129.775 347.91 129.475 348.01C129.175 348.01 110.075 359.01 86.975 372.41Z" fill="white"/>
</svg>
