<svg width="30" height="37" viewBox="0 0 30 37" fill="none" xmlns="http://www.w3.org/2000/svg">
<g clip-path="url(#clip0_2_18)">
<g opacity="0.5">
<path opacity="0.5" d="M14.9451 29.5089C16.082 29.5089 17.0037 28.59 17.0037 27.4565C17.0037 26.3229 16.082 25.404 14.9451 25.404C13.8082 25.404 12.8865 26.3229 12.8865 27.4565C12.8865 28.59 13.8082 29.5089 14.9451 29.5089Z" fill="#F59DB6"/>
</g>
<path fill-rule="evenodd" clip-rule="evenodd" d="M24.4308 34.5395L20.9393 32.9096C20.6567 32.7687 20.3136 32.9096 20.1925 33.1913L18.5578 36.6724C18.3358 37.1352 17.6899 37.095 17.5083 36.6322L13.9561 26.9334C13.8552 26.6315 13.9965 26.3096 14.2993 26.209L20.9393 23.7943C21.242 23.6937 21.5649 23.8346 21.6658 24.1364L25.2179 33.8352C25.3794 34.298 24.895 34.7407 24.4308 34.5395Z" fill="#EAC9F8"/>
<path d="M18.0531 36.2298C17.9522 36.2298 17.8714 36.1694 17.8513 36.0889L14.4404 26.7523L14.4607 26.6919C14.4808 26.6718 14.501 26.6316 14.5212 26.6316L21.0401 24.2572C21.1007 24.2371 21.1814 24.2572 21.2016 24.3377L24.5922 33.634C24.6326 33.7146 24.5922 33.8151 24.5317 33.8755C24.4711 33.9359 24.3702 33.956 24.2894 33.9157L21.141 32.4468C20.9796 32.3664 20.7979 32.3462 20.6364 32.3462C20.2328 32.3664 19.8897 32.6279 19.708 33.0102L18.2549 36.0889C18.2146 36.1895 18.1338 36.2298 18.0531 36.2298ZM14.6624 26.8127L18.0329 36.0084C18.0329 36.0084 18.0329 36.0285 18.0531 36.0285C18.0733 36.0285 18.0733 36.0285 18.0733 36.0084L19.5264 32.9298C19.7484 32.467 20.1723 32.1651 20.6364 32.145C20.8584 32.1249 21.0603 32.1651 21.2419 32.2657L24.3904 33.7347H24.4106V33.7146L21.0401 24.4986L14.6624 26.8127Z" fill="white"/>
<path fill-rule="evenodd" clip-rule="evenodd" d="M5.45946 34.5395L8.95103 32.9096C9.23357 32.7688 9.57665 32.9096 9.69773 33.1913L11.3325 36.6724C11.5546 37.1352 12.2003 37.095 12.382 36.6322L15.9341 26.9133C16.035 26.6114 15.8937 26.2894 15.591 26.1888L8.95103 23.7742C8.64827 23.6736 8.32534 23.8144 8.22442 24.1163L4.67234 33.8151C4.51089 34.298 4.99527 34.7407 5.45946 34.5395Z" fill="#EAC9F8"/>
<path d="M11.8369 36.2297C11.7562 36.2297 11.6755 36.1895 11.6352 36.109L10.182 33.0304C10.0004 32.648 9.63708 32.3864 9.25361 32.3663C9.072 32.3663 8.91054 32.3864 8.74908 32.4669L5.60059 33.9358C5.51986 33.976 5.41894 33.9559 5.3584 33.8956C5.29785 33.8352 5.27767 33.7346 5.29785 33.6541L8.70869 24.3175L8.74908 24.2974C8.76923 24.2773 8.80961 24.2773 8.84992 24.2974L15.4092 26.6919L15.4294 26.7321C15.4496 26.7522 15.4496 26.7925 15.4294 26.8328L12.0388 36.1291C12.0186 36.1694 11.9378 36.2297 11.8369 36.2297ZM10.3838 32.9297L11.8369 36.0084C11.8369 36.0084 11.8369 36.0285 11.8572 36.0285C11.8773 36.0285 11.8773 36.0084 11.8773 36.0084L15.2478 26.7925L8.87015 24.4785L5.49968 33.6944V33.7145C5.51986 33.7145 5.51986 33.7145 5.51986 33.7145L8.66831 32.2456C8.84992 32.1651 9.07192 32.1249 9.27377 32.1249C9.738 32.1852 10.1618 32.4669 10.3838 32.9297Z" fill="white"/>
<g opacity="0.5">
<path opacity="0.5" d="M14.9451 27.7182C15.5135 27.7182 15.9744 27.2587 15.9744 26.6919C15.9744 26.1252 15.5135 25.6657 14.9451 25.6657C14.3766 25.6657 13.9158 26.1252 13.9158 26.6919C13.9158 27.2587 14.3766 27.7182 14.9451 27.7182Z" fill="#F59DB6"/>
</g>
<path fill-rule="evenodd" clip-rule="evenodd" d="M16.7008 0.774741L17.6495 1.31803C18.1944 1.63999 18.7998 1.80096 19.4053 1.80096H20.4951C21.7465 1.80096 22.917 2.46499 23.5427 3.55158L24.0876 4.49731C24.3903 5.02048 24.8344 5.46317 25.3793 5.78512L26.3278 6.32841C27.4177 6.95219 28.0837 8.09915 28.0837 9.36686V10.4534C28.0837 11.0772 28.2451 11.6809 28.5479 12.2041L29.0928 13.1498C29.7185 14.2364 29.7185 15.5644 29.0928 16.651L28.5479 17.5967C28.2451 18.1199 28.0837 18.7235 28.0837 19.3474V20.4339C28.0837 21.6815 27.4177 22.8486 26.3278 23.4723L25.3793 24.0156C24.8545 24.3175 24.4105 24.7602 24.0876 25.3035L23.5427 26.2492C22.917 27.3358 21.7666 27.9998 20.4951 27.9998H19.4053C18.7796 27.9998 18.1741 28.1608 17.6495 28.4626L16.7008 29.0059C15.611 29.6297 14.279 29.6297 13.1891 29.0059L12.2405 28.4626C11.7158 28.1608 11.1103 27.9998 10.4847 27.9998H9.39483C8.14353 27.9998 6.97293 27.3358 6.34728 26.2492L5.80235 25.3035C5.49962 24.7803 5.0556 24.3376 4.51068 24.0156L3.56211 23.4723C2.47226 22.8486 1.80624 21.7017 1.80624 20.4339V19.3474C1.80624 18.7235 1.64478 18.1199 1.34205 17.5967L0.797119 16.651C0.171468 15.5644 0.171468 14.2364 0.797119 13.1498L1.34205 12.2041C1.64478 11.6809 1.80624 11.0772 1.80624 10.4534V9.36686C1.80624 8.11926 2.47226 6.95219 3.56211 6.32841L4.51068 5.78512C5.03542 5.48328 5.47943 5.0406 5.80235 4.49731L6.34728 3.55158C6.97293 2.46499 8.1233 1.80096 9.39483 1.80096H10.4847C11.1103 1.80096 11.7158 1.63999 12.2405 1.33815L13.1891 0.79486C14.279 0.150956 15.611 0.150956 16.7008 0.774741Z" fill="white"/>
<path d="M14.9451 29.8107C14.279 29.8107 13.613 29.6498 13.0277 29.3077L12.0792 28.7644C11.5948 28.4827 11.0498 28.3418 10.4848 28.3418H9.39492C8.02246 28.3418 6.75101 27.6174 6.06481 26.4303L5.51988 25.4845C5.23733 25.0016 4.83368 24.5991 4.34931 24.3175L3.40073 23.7741C2.20997 23.09 1.48341 21.8223 1.48341 20.454V19.3674C1.48341 18.804 1.34213 18.2607 1.05958 17.7778L0.514651 16.8321C-0.17155 15.6448 -0.17155 14.1759 0.514651 13.0089L1.05958 12.0632C1.34213 11.5802 1.48341 11.0369 1.48341 10.4735V9.3869C1.48341 8.01859 2.20997 6.75094 3.40073 6.06678L4.34931 5.52349C4.83368 5.22166 5.23733 4.81922 5.51988 4.33629L6.06481 3.39056C6.75101 2.20336 8.02246 1.47897 9.39492 1.47897H10.4848C11.0498 1.47897 11.5948 1.33811 12.0792 1.0564L13.0277 0.513111C14.2185 -0.171037 15.6918 -0.171037 16.8624 0.513111L17.8109 1.0564C18.2953 1.33811 18.8402 1.47897 19.4054 1.47897H20.4952C21.8676 1.47897 23.1391 2.20336 23.8253 3.39056L24.3702 4.33629C24.6528 4.81922 25.0565 5.22166 25.5408 5.50337L26.4894 6.04666C27.6802 6.73081 28.4067 7.99848 28.4067 9.36678V10.4533C28.4067 11.0168 28.548 11.5601 28.8305 12.043L29.3755 12.9888C30.0617 14.1759 30.0617 15.6448 29.3755 16.812L28.8305 17.7577C28.548 18.2406 28.4067 18.7839 28.4067 19.3473V20.4339C28.4067 21.8022 27.6802 23.0699 26.4894 23.754L25.5408 24.2974C25.0565 24.579 24.6528 24.9815 24.3702 25.4644L23.8253 26.4101C23.1391 27.5973 21.8676 28.3217 20.4952 28.3217H19.4054C18.8402 28.3217 18.2953 28.4626 17.8109 28.7443L16.8624 29.2876C16.2771 29.6498 15.6111 29.8107 14.9451 29.8107ZM9.39492 2.12288C8.26469 2.12288 7.2152 2.72653 6.62991 3.71251L6.08499 4.65825C5.74189 5.24178 5.25751 5.72471 4.67222 6.06678L3.72365 6.61008C2.73472 7.1735 2.12924 8.21986 2.12924 9.36678V10.4533C2.12924 11.1174 1.9476 11.7814 1.62468 12.3649L1.07975 13.3107C0.514651 14.2967 0.514651 15.504 1.07975 16.49L1.62468 17.4357C1.96778 18.0192 2.12924 18.6833 2.12924 19.3473V20.4339C2.12924 21.5607 2.73472 22.6071 3.72365 23.1906L4.67222 23.7339C5.25751 24.076 5.74189 24.5589 6.08499 25.1424L6.62991 26.0882C7.19502 27.0741 8.24454 27.6779 9.39492 27.6779H10.4848C11.1508 27.6779 11.8168 27.8589 12.4021 28.1809L13.3506 28.7242C14.3396 29.2876 15.5505 29.2876 16.5395 28.7242L17.488 28.1809C18.0733 27.8388 18.7393 27.6779 19.4054 27.6779H20.4952C21.6255 27.6779 22.6749 27.0741 23.2602 26.0882L23.8052 25.1424C24.1482 24.5589 24.6326 24.076 25.2179 23.7339L26.1665 23.1906C27.1554 22.6272 27.7608 21.5809 27.7608 20.4339V19.3473C27.7608 18.6833 27.9425 18.0192 28.2655 17.4357L28.8104 16.49C29.3755 15.504 29.3755 14.2967 28.8104 13.3107L28.2655 12.3649C27.9223 11.7814 27.7608 11.1174 27.7608 10.4533V9.36678C27.7608 8.23998 27.1554 7.19362 26.1665 6.61008L25.2179 6.06678C24.6326 5.72471 24.1482 5.24178 23.8052 4.65825L23.2602 3.71251C22.6951 2.72653 21.6456 2.12288 20.4952 2.12288H19.4054C18.7393 2.12288 18.0733 1.94178 17.488 1.61982L16.5395 1.07653C15.5505 0.513111 14.3396 0.513111 13.3506 1.07653L12.4021 1.61982C11.8168 1.96189 11.1508 2.12288 10.4848 2.12288H9.39492Z" fill="#5E58A5"/>
<path d="M9.05168 13.0894C8.91038 12.8279 8.72876 12.6065 8.46638 12.4858C8.22422 12.345 7.92145 12.2846 7.57838 12.2846H6.24634C5.9436 12.2846 5.70142 12.526 5.70142 12.8279V13.1297V18.0596C5.70142 18.12 5.7216 18.1602 5.74178 18.2004C5.76196 18.2407 5.80232 18.2608 5.86288 18.2608H6.22615C6.26652 18.2608 6.30689 18.2407 6.34725 18.2004C6.36743 18.1602 6.38762 18.12 6.38762 18.0596V16.0877C6.38762 15.987 6.46835 15.9266 6.54908 15.9266H7.59856C7.94168 15.9266 8.22422 15.8663 8.48661 15.7255C8.74899 15.5846 8.93061 15.3834 9.07184 15.1218C9.21315 14.8602 9.27368 14.5181 9.27368 14.1157C9.25353 13.7133 9.17276 13.3712 9.05168 13.0894ZM8.30492 14.9205C8.14345 15.1017 7.88115 15.2023 7.53802 15.2023H6.52889C6.42799 15.2023 6.34725 15.1218 6.34725 15.0211V13.1499C6.34725 13.0492 6.42799 12.9687 6.52889 12.9687H7.53802C7.88115 12.9687 8.14345 13.0693 8.30492 13.2505C8.46638 13.4516 8.54715 13.7133 8.54715 14.0754C8.5673 14.4779 8.48661 14.7395 8.30492 14.9205Z" fill="#5E58A5"/>
<path d="M6.20614 18.2608H5.84286C5.78231 18.2608 5.74195 18.2407 5.72177 18.2005C5.70158 18.1602 5.6814 18.12 5.6814 18.0596V12.8279C5.6814 12.5261 5.92359 12.2644 6.2465 12.2644H7.59873C7.94183 12.2644 8.24453 12.3249 8.48676 12.4657C8.72891 12.6065 8.93076 12.8078 9.07207 13.0895C9.2133 13.3511 9.27383 13.6931 9.27383 14.0955C9.27383 14.498 9.2133 14.8401 9.07207 15.1016C8.93076 15.3633 8.72891 15.5846 8.48676 15.7054C8.24453 15.8462 7.94183 15.9065 7.59873 15.9065H6.54924C6.46851 15.9065 6.38778 15.9669 6.38778 16.0675V18.0395C6.38778 18.0999 6.3676 18.1401 6.34742 18.1803C6.30705 18.2407 6.26669 18.2608 6.20614 18.2608ZM6.2465 12.3047C5.94377 12.3047 5.70158 12.5462 5.70158 12.848V18.0798C5.70158 18.1401 5.72177 18.1804 5.74195 18.2206C5.76213 18.2608 5.8025 18.2809 5.84286 18.2809H6.20614C6.2465 18.2809 6.28687 18.2608 6.32723 18.2206C6.34742 18.1804 6.3676 18.1401 6.3676 18.0798V16.0876C6.3676 15.987 6.44833 15.9065 6.54924 15.9065H7.59873C7.94183 15.9065 8.22437 15.8462 8.4666 15.7054C8.70876 15.5644 8.9106 15.3633 9.03168 15.1016C9.17299 14.8401 9.23353 14.498 9.23353 14.0955C9.23353 13.6931 9.17299 13.3511 9.03168 13.0895C8.89037 12.8279 8.70876 12.6266 8.4666 12.4858C8.22437 12.345 7.92168 12.2846 7.59873 12.2846H6.2465V12.3047ZM7.55836 15.2224H6.54924C6.44833 15.2224 6.3676 15.1419 6.3676 15.0413V13.1699C6.3676 13.0693 6.44833 12.9889 6.54924 12.9889H7.55836C7.90145 12.9889 8.16383 13.0895 8.3253 13.2907C8.48676 13.4919 8.56745 13.7535 8.56745 14.1157C8.56745 14.4779 8.48676 14.7596 8.30514 14.9407C8.14368 15.1218 7.8813 15.2224 7.55836 15.2224ZM6.54924 13.009C6.46851 13.009 6.38778 13.0895 6.38778 13.1699V15.0413C6.38778 15.1218 6.46851 15.2023 6.54924 15.2023H7.55836C7.8813 15.2023 8.14368 15.1016 8.30514 14.9206C8.4666 14.7395 8.5473 14.4578 8.5473 14.1157C8.5473 13.7737 8.4666 13.4919 8.30514 13.3108C8.14368 13.1297 7.8813 13.0291 7.53818 13.0291H6.54924V13.009Z" fill="#5E58A5"/>
<path d="M15.5708 18.2608C15.5304 18.2608 15.5102 18.2407 15.4698 18.2005C15.4497 18.1602 15.4294 18.12 15.4294 18.0798C15.4294 18.0596 15.4294 18.0194 15.4294 17.9791L17.1248 12.4657C17.145 12.4053 17.1651 12.3651 17.2055 12.3249C17.2459 12.2846 17.2862 12.2644 17.3468 12.2644H17.811C17.8715 12.2644 17.9321 12.2846 17.9523 12.3249C17.9926 12.3651 18.0128 12.4053 18.033 12.4657L19.7283 17.9791C19.7283 18.0194 19.7485 18.0395 19.7485 18.0798C19.7485 18.12 19.7283 18.1602 19.7081 18.2005C19.688 18.2407 19.6476 18.2608 19.6072 18.2608H19.2641C19.2036 18.2608 19.1632 18.2407 19.1431 18.2005C19.1228 18.1602 19.1027 18.1401 19.0824 18.0999L18.7595 17.0333C18.7192 16.9529 18.6587 16.8925 18.5578 16.8925H16.6001C16.5193 16.8925 16.4386 16.9529 16.4184 17.0333L16.0753 18.12C16.0753 18.1401 16.0551 18.1804 16.0349 18.2206C16.0148 18.2608 15.9744 18.2809 15.9138 18.2809H15.5708V18.2608ZM16.7615 16.1682H18.3963C18.4568 16.1682 18.477 16.1078 18.477 16.0675L17.6495 13.3913C17.6294 13.3108 17.5284 13.3108 17.5082 13.3913L16.6808 16.0675C16.6808 16.1078 16.7211 16.1682 16.7615 16.1682Z" fill="#5E58A5"/>
<path d="M19.6071 18.2608H19.264C19.2034 18.2608 19.1631 18.2407 19.1429 18.2005C19.1227 18.1602 19.1026 18.1401 19.0823 18.0999L18.7393 17.0132C18.7191 16.9328 18.6383 16.8925 18.5576 16.8925H16.5999C16.5192 16.8925 16.4586 16.9529 16.4183 17.0132L16.0752 18.0999C16.0752 18.12 16.055 18.1602 16.0348 18.2005C16.0146 18.2407 15.9541 18.2608 15.8936 18.2608H15.5504C15.5101 18.2608 15.4697 18.2407 15.4495 18.2005C15.4293 18.1602 15.4092 18.12 15.4092 18.0798C15.4092 18.0596 15.4092 18.0194 15.4092 17.9791L17.1246 12.4657C17.1449 12.4053 17.165 12.3651 17.2054 12.3249C17.2458 12.2846 17.2861 12.2644 17.3669 12.2644H17.831C17.8916 12.2644 17.9521 12.2846 17.9925 12.3249C18.0329 12.3651 18.053 12.4053 18.0733 12.4657L19.7686 17.9791C19.7686 18.0194 19.7887 18.0395 19.7887 18.0798C19.7887 18.12 19.7686 18.1804 19.7484 18.2005C19.6878 18.2407 19.6475 18.2608 19.6071 18.2608ZM16.5999 16.8925H18.5576C18.6383 16.8925 18.7191 16.9529 18.7594 17.0333L19.1026 18.12C19.1026 18.1401 19.1227 18.1804 19.1429 18.2005C19.1631 18.2407 19.2034 18.2407 19.2438 18.2407H19.5869C19.6273 18.2407 19.6475 18.2206 19.6676 18.2005C19.6878 18.1602 19.708 18.1401 19.708 18.0798C19.708 18.0596 19.708 18.0194 19.6878 17.9791L18.0329 12.4657C18.0127 12.4053 17.9925 12.3651 17.9521 12.3249C17.9319 12.2846 17.8714 12.2846 17.8109 12.2846H17.3466C17.2861 12.2846 17.2458 12.3047 17.2054 12.3249C17.165 12.3651 17.1449 12.4053 17.1246 12.4657L15.4293 17.9791C15.4293 18.0194 15.4293 18.0395 15.4293 18.0596C15.4293 18.0999 15.4495 18.1401 15.4697 18.1804C15.4899 18.2206 15.5303 18.2206 15.5504 18.2206H15.8936C15.9541 18.2206 15.9743 18.2005 16.0146 18.1804C16.0348 18.1401 16.055 18.12 16.055 18.0999L16.3981 17.0132C16.4385 16.9529 16.5192 16.8925 16.5999 16.8925ZM18.3962 16.1682H16.7614C16.7412 16.1682 16.7008 16.148 16.6806 16.1279C16.6605 16.1078 16.6605 16.0675 16.6605 16.0474L17.4879 13.3712C17.5081 13.331 17.5283 13.3108 17.5686 13.3108C17.609 13.3108 17.6494 13.331 17.6494 13.3712L18.4769 16.0474C18.4769 16.0675 18.4769 16.1078 18.4567 16.1279C18.4365 16.148 18.4365 16.1682 18.3962 16.1682ZM17.5889 13.331C17.5686 13.331 17.5283 13.3511 17.5283 13.3712L16.7008 16.0474C16.7008 16.0675 16.7008 16.0876 16.721 16.1078C16.7412 16.1279 16.7614 16.1279 16.7816 16.1279H18.4163C18.4365 16.1279 18.4567 16.1279 18.4769 16.1078C18.497 16.0876 18.497 16.0675 18.497 16.0474L17.6696 13.3712C17.6293 13.3511 17.609 13.331 17.5889 13.331Z" fill="#5E58A5"/>
<path d="M12.0793 18.0596L10.5857 15.5242C10.4444 15.2827 10.4444 14.9809 10.5857 14.7595L12.059 12.3851C12.2003 12.1437 12.5636 12.1437 12.7049 12.3851L14.1782 14.7797C14.3195 15.0212 14.3195 15.3028 14.1984 15.5443L12.7453 18.0797C12.6039 18.3011 12.2407 18.3011 12.0793 18.0596Z" fill="#5E58A5"/>
<path d="M12.4223 18.2607C12.281 18.2607 12.1599 18.1803 12.0792 18.0596L10.5857 15.5242C10.4444 15.2827 10.4444 14.9809 10.5857 14.7394L12.059 12.365C12.1398 12.2443 12.2609 12.184 12.4021 12.184C12.5434 12.184 12.6645 12.2443 12.7453 12.365L14.2186 14.7595C14.3598 15.001 14.3598 15.2827 14.2387 15.5242L12.7856 18.0596C12.6847 18.1803 12.5636 18.2607 12.4223 18.2607ZM12.0994 18.0394C12.1599 18.1602 12.281 18.2205 12.4223 18.2205C12.5636 18.2205 12.6847 18.14 12.7453 18.0394L14.1983 15.5041C14.3396 15.2626 14.3195 14.9809 14.1782 14.7595L12.7049 12.365C12.6443 12.2443 12.5233 12.184 12.3819 12.184C12.2406 12.184 12.1398 12.2443 12.059 12.365L10.5857 14.7394C10.4444 14.9809 10.4444 15.2626 10.5857 15.5041L12.0994 18.0394Z" fill="#5E58A5"/>
<path d="M12.3011 17.0534L11.2314 15.2223C11.2113 15.182 11.2113 15.1418 11.2314 15.1016L12.3011 13.3711C12.3415 13.2906 12.4626 13.2906 12.503 13.3711L13.5726 15.1016C13.5928 15.1418 13.5928 15.182 13.5726 15.2223L12.5231 17.0534C12.4626 17.1339 12.3617 17.1339 12.3011 17.0534Z" fill="white"/>
<path d="M24.5116 13.0894C24.3703 12.8279 24.1887 12.6065 23.9263 12.4858C23.6841 12.345 23.3813 12.2846 23.0383 12.2846H21.686C21.3833 12.2846 21.1411 12.526 21.1411 12.8279V13.1297V18.0596C21.1411 18.12 21.1613 18.1602 21.1815 18.2004C21.2017 18.2407 21.242 18.2608 21.3026 18.2608H21.6659C21.7063 18.2608 21.7466 18.2407 21.787 18.2004C21.8072 18.1602 21.8273 18.12 21.8273 18.0596V16.0877C21.8273 15.987 21.908 15.9266 21.9888 15.9266H23.0383C23.3813 15.9266 23.664 15.8663 23.9263 15.7255C24.1685 15.5846 24.3703 15.3834 24.5116 15.1218C24.6529 14.8602 24.7134 14.5181 24.7134 14.1157C24.7134 13.7133 24.6529 13.3712 24.5116 13.0894ZM23.785 14.9205C23.6236 15.1017 23.3612 15.2023 23.0181 15.2023H22.009C21.908 15.2023 21.8273 15.1218 21.8273 15.0211V13.1499C21.8273 13.0492 21.908 12.9687 22.009 12.9687H23.0181C23.3612 12.9687 23.6236 13.0693 23.785 13.2505C23.9465 13.4516 24.0272 13.7133 24.0272 14.0754C24.0272 14.4779 23.9465 14.7395 23.785 14.9205Z" fill="#5E58A5"/>
<path d="M21.6859 18.2608H21.3226C21.2621 18.2608 21.2217 18.2407 21.2015 18.2005C21.1814 18.1602 21.1611 18.12 21.1611 18.0596V12.8279C21.1611 12.5261 21.4034 12.2644 21.7263 12.2644H23.0785C23.4216 12.2644 23.7243 12.3249 23.9665 12.4657C24.2087 12.6065 24.4105 12.8078 24.5518 13.0895C24.6931 13.3511 24.7536 13.6931 24.7536 14.0955C24.7536 14.498 24.6931 14.8401 24.5518 15.1016C24.4105 15.3633 24.2087 15.5846 23.9665 15.7054C23.7243 15.8462 23.4216 15.9065 23.0785 15.9065H22.029C21.9483 15.9065 21.8675 15.9669 21.8675 16.0675V18.0395C21.8675 18.0999 21.8474 18.1401 21.8272 18.1803C21.7666 18.2407 21.7263 18.2608 21.6859 18.2608ZM21.7061 12.3047C21.4034 12.3047 21.1611 12.5462 21.1611 12.848V18.0798C21.1611 18.1401 21.1814 18.1804 21.2015 18.2206C21.2217 18.2608 21.2621 18.2809 21.3024 18.2809H21.6657C21.7061 18.2809 21.7464 18.2608 21.7868 18.2206C21.807 18.1804 21.8272 18.1401 21.8272 18.0798V16.0876C21.8272 15.987 21.9079 15.9065 22.0088 15.9065H23.0583C23.4014 15.9065 23.684 15.8462 23.9261 15.7054C24.1684 15.5644 24.3701 15.3633 24.4913 15.1016C24.6325 14.8401 24.6931 14.498 24.6931 14.0955C24.6931 13.6931 24.6325 13.3511 24.4913 13.0895C24.35 12.8279 24.1684 12.6266 23.9261 12.4858C23.684 12.345 23.3812 12.2846 23.0583 12.2846H21.7061V12.3047ZM23.0179 15.2224H22.0088C21.9079 15.2224 21.8272 15.1419 21.8272 15.0413V13.1699C21.8272 13.0693 21.9079 12.9889 22.0088 12.9889H23.0179C23.3611 12.9889 23.6234 13.0895 23.7849 13.2907C23.9464 13.4919 24.0271 13.7535 24.0271 14.1157C24.0271 14.4779 23.9464 14.7596 23.7647 14.9407C23.6234 15.1218 23.3611 15.2224 23.0179 15.2224ZM22.0088 13.009C21.9281 13.009 21.8474 13.0895 21.8474 13.1699V15.0413C21.8474 15.1218 21.9281 15.2023 22.0088 15.2023H23.0179C23.3408 15.2023 23.6032 15.1016 23.7647 14.9206C23.9261 14.7395 24.0069 14.4578 24.0069 14.1157C24.0069 13.7737 23.9261 13.4919 23.7647 13.3108C23.6032 13.1297 23.3408 13.0291 22.9977 13.0291H22.0088V13.009Z" fill="#5E58A5"/>
</g>
<defs>
<clipPath id="clip0_2_18">
<rect width="30" height="37" fill="white"/>
</clipPath>
</defs>
</svg>
