
<svg viewBox="0 0 396 89.4069" width="5000px" height="1128.8749810421104px" xmlns="http://www.w3.org/2000/svg" xmlns:xlink="http://www.w3.org/1999/xlink" preserveAspectRatio="none"><defs></defs><style>.aD6z1nYkhcolor {fill:#FFFFFF;fill-opacity:1;}.icon1 {fill:#b89f57;fill-opacity:1;}.icon2 {fill:#dadada;fill-opacity:1;}.icon3 {fill:#6f5f35;fill-opacity:1;}</style><g opacity="1" transform="rotate(0 0 0)">
        <svg width="124.1323" height="89.4069" x="0" y="0" version="1.1" preserveAspectRatio="none" viewBox="20.100034713745117 41.547271728515625 159.5999755859375 114.95272827148438">
          <g transform="matrix(1 0 0 1 0 0)"><g><path d="M135.4 149.3l.4.1.1-.4-.4-.1-.1.4z" data-color="1" class="icon1"></path><path d="M138 152.8l.1.2.3-.1-.4-.1z" data-color="1" class="icon1"></path><path d="M134.5 149.7l.4-.1c.3.1.2.6.5.6v-.9h-.3l.1-.4.1-.4c.5-.1.5.2.5.6.4.4 1.2.5 1.4 1.1.1.9-1 .5-1.1 1.1.8 1.2 2.6-.6 3.3.3l-.1.4.4-.1c0 .9-1.1.6-1.4 1.1 2.2-.6 4.4-1.4 6.6-2.2 6.1-2.5 11.8-6.1 16.7-10.6l.1-.4-.1-.4c.7-.8 1.6-1.4 2.5-2l.1.3c.6-.7 1.2-1.3 1.8-2 .5-.6 1.1-1.2 1.6-1.9l-.1-.3-.4.1v-2.3l.4.1.1-.4c.8 0 .8 1.2.6 1.4l.2.2c1-1.3 1.9-2.6 2.7-3.9h-.5v-.3l.4.1.1-.4c.1-.1.2-.2.4-.2 1.7-2.7 3.1-5.6 4.3-8.6-.1-.1-.2-.1-.3-.1.1-.2.3-.3.3-.6.1 0 .2.1.2.1 1-2.5 1.8-5.1 2.4-7.7-1.1-.6-2.2-1.3-3.2-2.1-.1-.6.4-.5.8-.6-.5-1.5-2.3-1.6-2.2-3.7l.5.1.3-.4c.3.3.6.7.8 1.1 2-.2 2.8.8 3.6 1.9.4-2.7.7-5.4.7-8.1-.6-.2-.9-.8-.8-1.4h.8c0-5.5-.9-11-2.5-16.3-.3.5-1.5.3-1.3-.6.3.2.8.4 1.2.3-.5-1.6-1-3.1-1.7-4.6-2.7-6.5-6.6-12.5-11.5-17.6 0 .1-.1.2-.1.3-.4.1-.3-.3-.3-.6-3.9-4-8.5-7.5-13.4-10.2v.8c-.3-.2-.7-.3-1.1-.3.1-.5.4-.6 1-.6-1.3-.7-2.7-1.4-4-2-.2.1-.5.2-.8.3.1-.1.3-.3.5-.4-14.1-6.2-30-6.3-44.2-.5-1.4.6-2.8 1.2-4.1 1.9v.4c-.2 0-.3 0-.4-.1-14.7 7.7-25.3 21.4-29 37.6.6.1.7.5.7-.6.7-.2.5.6 1.1.6-.4.7-1.1 1.1-1.9 1.1v-.5c-.1.6-.3 1.3-.4 1.9.4-.1.8.1.6.6-.3-.4-.5-.2-.8 0-.3 1.5-.4 2.9-.6 4.4.3.1.6.2.8.2.2.8-.5.8-.9 1-.2 3.4-.2 6.9.2 10.3.1 0 .1-.1.1-.2.3.1.2.6.5.6 0 .4-.3.4-.6.3.2 1.7.5 3.5.9 5.2.3-1.1 1.6-.2 2.2 0-.6.6-1.5.6-2.1 0 1.6 7.5 4.8 14.6 9.2 20.9v-.3c.8-.2 1 .8.6 1.3 1.8 2.4 3.8 4.7 5.9 6.8.2 0 .4.1.6.3v.3c2.3 2.2 4.8 4.2 7.5 6h.7l-.1.3h.1l.3-.1-.1.2c.6.4 1.2.8 1.8 1.1 0-.2.3-.5.2-1.1.9.3.2.5.3 1.3 1 .6 2 1.1 3 1.6 0-.6.2-1 .8-1-.1.5-.1 1-.5 1.1 2.3 1.1 4.7 2.1 7.1 2.9.1 0 .2 0 .3.1.4.1.7.2 1.1.4v-.2l.4.1.4.1.1.1c1.4.4 2.7.7 4.1 1-.1-.4-.2-.8-.1-1.2.2.2.5.3.8.3.2.6-.1.7-.2 1 6.7 1.3 13.6 1.4 20.3.3.2-1.7.7-3.4 1.5-5l.6.6zm-64.7-36.2c.9.8-1.4.7 0 0zm65.6 24.2l-.5.1c0-.5-.3-.6-.3-1.1l.1-.4-.4-.1c.1-.5.8-.5.6-1.4.2.9 1.7.3 2.2.9-.1 1-.6 1.9-1.4 2.6l-.3-.6zm2.2 4.1v-.6c.2 0 .3-.1.3-.3.5 0 .4 1.4-.3.9zm2.5-2c-.7-.1-1.9-.2-2.2.9-.6-.6-1.5-.7-2.2-.3.8-.9 1-2.3 1.9-3.1v.3h.3c.2.2.5.3.8.3.8-.6-.1-1.8 0-2.6.5 1.1 1-.4 1.9.3-.2.3-.6.3-.5.9h.3l-.1.5.4.3c.1.5-.3.5-.3.9h1.1l-.1.5.4.3c-.4 1-.3 2.3-.8 3.1l-.4-.1.1.4c-1.1.1.1-2.2-1.6-1.4-.4-1.1.8-.6 1-1.2zm-2.5-2.8c.2-.4.4-.9 1.1-.9-.3.4-.3 1.1-.8 1.1v-.2h-.3zm-.5-15.2c-.8-.3-1.6-.4-2.5-.3.1-.6-.2-1.2-.8-1.4.6-.7 2.5-.1 3.6-.3v1.1l-.4.3.1.6zM131.9 93h-.3l.1-.5-.4-.3c.4-.9 1.2-1.2 2.5-1.1l-.1.3.1.3c.6.7.2.8.5 1.4v.3h.3c-1.1.8-1.9 1.9-3.3 1.7.1-.9.9-.9.6-2.1zm1.6-9.2h1.6l-.1.5.4.3c-.5.5-1.2.7-1.9.6.5-.5 0-.7 0-1.4zm2.2-10c.8.1.8 1.1 1.1 1.7-1.4.1-2.5 0-2.7-1.1.4-.5 1.2.3 1.6-.6zm-.3-9.7c.6.2 1 .8.8 1.4-.2-.5-1-.5-.8-1.4zm2.8 48c0 .6-1.2.1-1.6.3-.1-.6 1.1-.1 1.6-.3zm-.6-27.1c0-.5.9-.2.8-.9.8.3-.1 1.2-.8.9zm.6 23.4c.6 0 .6.7.5 1.4-1.2 0-.5-.5-.5-1.4zm-1.7-.6c-.1-.6.4-.5.8-.6-.1.4-.4.7-.8.6zm-.5-10c.8-.4.4 1.6-.3 1.4.3-.4.4-.9.3-1.4zm0-20.6c-.1 1-1.3.4-1.9.3.3-.7 1.2-.5 1.9-.3zm-3 38.1c1.1-.1 1.1.9 1.9 1.1-.1.4-.7.2-1.1.3.5-1.3-1.1-.4-.8-1.4zm1.3-20.3c1 0 1.4 1 .6 1.4l-.1-.4-.4-.1c-.5-.2 0-.4-.1-.9zm0 1.4l.3.1.3.1c1.2.9-.3 3.1-.6 4.3l-.4-.1-.1.4c-.9-.5-.3-3.3-.6-3.7.4-.4 1.1-.4 1.1-1.1zm-1.1 14.6c1.6 1.1.7 2 0 0zm1.1-4c.5.3 1.5 0 1.4.9-.8 0-1.5 0-1.4-.9zm.8-25.2c0 .7-.9.1-1.1 0 .3-.9.7-.2 1.1 0zm-3.5 34h.8v.6h-.8v-.6zm.8 2.3c.1-.3.2-.5.5-.6.8 0 .7.8 1.1 1.1l-.4.1.1.4c-.5.1-1 0-1.4-.3l.1-.4v-.3zm4.1-1.1c0-.3-.1-.5-.3-.6.4-1.2 1.2-.1 1.9 0-.2.5-1.1.3-1.6.6zm2.8 1.4c-.1.9-1.5.6-1.4-.3.5-.1 1 0 1.4.3zm-.9-19.7c-.6-1.2-.7-2.7-.3-4h.8l.1.4.4-.1c.2 1.3-.2 2.6-1 3.7zm1.7 19.4c-.4-.1-.6-.5-.5-.9.3.2.5.5.5.9zm3.8-31.7c0 .9-.8 1.1-1.6 1.1 0-.9.9-.9 1.6-1.1zm-.8-10.9c1.8-.5-2.2.8 0 0zm4.1-4.8c.7.8.6-.3 1.4-.3 0 1-.6 1.2-1.1 1.7-.6 0-.2-1-.3-1.4zm.8-7.2c-.8 1.1-.9-.9 0 0zm1.9 48h-.3c0 .7-.5.9 0 1.4-.4.4-1.3.1-1.4.9l-.4-.1-.4-.1c-.5-.9-.9-2.8 0-3.4.5 1.5 1.6-.4 2.7.9l-.4.1.2.3zm-.5 9.5c.2-.6 1.6-.1 1.4.6-.7 0-.9-.5-1.4-.6zm1.1 11.1c-.1.5-.3-.2-.3-.6.1-.5.3.2.3.6zm-.6-8.3c-.9 0-1 .8-1.1 1.7l-.1.4.4-.1c-.9 1.3-1.1 3.3-2.7 3.7-.6-1.8.1-3.6.5-5.1v.3h.8v-.6h-.6l-.1-.4-.1.4c-.2.1-.3-.1-.3-.3l.5-.3-.5-.3c-.2-.2-.2-.8-.5-.9.3-.8 1.1.4 1.4.6.4-.2.8-.5 1.1-.9.5.6 1.2.9 1.3 1.8zm-5.2 16.6c.4.1.6 2.4-.3 2 .1-.7-.1-1.6.3-2zm-1.3-8c.1-.6 1-.3 1.1-.9 1.1.4-.1 1.2-1.1.9zm1.6 3.7c-.1-.7.5-.6.3-1.4 1-.3.3 1.6-.3 1.4zm-3-31.1c-.6.1-.7-.2-1.1-.3-.1-.5 1.5-.5 1.1.3zm.5 4h-1.4c.2-.5.5-1 .8-1.4.5.2.5.9.6 1.4zm-1.1-7.7v-.6h.5v.6h-.5zm.3-12.6c-.2-.2-.5-.3-.8-.3v-.9c.5 0 .6-.3 1.1-.3.2.9-.4.8-.3 1.5zm-1.4-1.7c.1-.4.5-.4.6-.9.7.1 0 1.1-.6.9zm.9 35.4c-.3-.4-.8-.7-.8-1.4.5.2.7.7.8 1.4zm.2 4.9c-.2 1-.6.3-1.1 0 .1-.8.5.4 1.1 0zm-.5-9.7c.8 0 1.5.1 1.4 1.1-.3-.6-1.4-.3-1.4-1.1zm2.2 1.7c-.1.5-.5.7-1.1.6-.3-.9.6-.6 1.1-.6zm2.4-10.3h-2.2c-.5-1-.8-2.1-.8-3.1 1.5-.4 3.1.9 3 3.1zm-2.4-9.5c.4.1.6 2.4-.3 2 0-.7-.1-1.6.3-2zm1.1 22.9c-.2 1.9.7 2.6.3 4l-.4-.1-.1.4c-1.1-.9-1.3-2.8-1.9-4.3.9.5 1 .5 2.1 0zm-.6-12.3h2.2c.4 1.4-.8 1.2-.8 2.3-1-.2-1.5-.9-1.4-2.3zm2.5-3.7c.3-.9.9.1 1.1.3-.1.7-.7-.3-1.1-.3zm1.1 2.9h-.8v-.9c.6-.1.8.2.8.9zm-.6 4.2c-.4.9-.9-.6-1.4-.6.1-.3.5-.2.5-.6.7.2.4 1.2.9 1.2zm.6 3.2c.1-.1-.8-.3-.8-.3-.1-.5 1.4-.4.8.3zm-1.9 1.7c.7-.2.5.6 1.1.6-.2.7-1.4.1-1.1-.6zm3-29.4c1.6.3-1 1.3 0 0zm-.6-2c-.4-.3-.6-.7-.6-1.1.3.2.7.3 1.1.3.2.5-.4.3-.5.8zm.6.2c.1-.4.5-.4.5-.9.7.2 0 1.2-.5.9zm-.6-7.7c.1-.5.5-.7 1.1-.6-.2.4-.6.7-1.1.6zm1.4 20.3c.5-.1.5 1.6-.3 1.1 0-.5.4-.5.3-1.1zm.3-19.4c-.8-.5.5-1.2 1.1-1.1-.1.6-.9.6-1.1 1.1zm-1.1-4c.1-1 .9-1.1 1.6-1.4 0 .8-.7 1.4-1.6 1.4zm-.8-2v-.6h1.4c-.2.4-1.2 1.2-1.4.6zm.8 6v.9c-.8-.2-.7.4-1.4.3.1-.7.7-1.2 1.4-1.2zm-1.7-1.7c-.2.2-.2-1.7.5-1.4.1.6-.3.8-.5 1.4zm0 8.5c1.2 0 .2 1.2 0 1.4-.8-.2.4-.7 0-1.4zm-1.1-5.9c-.6-.2.6-.9.6-1.4.8.3-.3 1-.6 1.4zm0 1.4c-.2 0-.3-.4-.3-.6.5-1 .6.5.3.6zm-.2 2.8c.2.1.3.3.5.3v.6c-.3 0-.5.1-.5.3-.7-.1.3-.5 0-1.2zm0 15.8l.4.1.4.1c.1 1.5 1.4 1.8 2.7 2-.1 1.2-2.5 1.4-3 1.1l.3-.4-.3-.4c0-.8-.7-.8-1.4-.9.1-.8.8-.9.9-1.6zm-1.4-11.8c.4-1.3 1.4-.3 0 0zm.6-21.4c-.5-.1-.6-.5-.6-1.1.5 0 .6.3 1.1.3-.1.3-.5.4-.5.8zm-3.9 14.3c-.1-1 1-.9 1.6-1.1.3 1.2-.6 1.2-1.6 1.1zm-.3-11.7c.2-.7.3.1.3 0 .1 1-.6 1.6-.3 0zm3.1 58c0 .5.3.6.3 1.1 1.2 0-.5-1.2.8-1.1l.1.4.4-.1v1.7c-1.8.6-2.9 1.9-5.2 2l-.1-.4-.4-.1c-.1-.8.6-.7 1.1-.9-.2-.3-.3-.7-.3-1.1 1.5-.1 1.4-1.8 3.3-1.5zm-3.6 1.7c0 .8-1.2.6-1.1-.3.6-.1.7.2 1.1.3zm.8 16c-.5-.6-1.2-1-1.4-2 .2.2 1.3.7 1.4 0 .4.5 1.1.7 1.1 1.7-.4.1-1-.1-1.1.3zm1.9 4c-.2.2-.5.3-.8.3-.4-.4-.3-1.2-.3-2 .7 0 .9.4 1.1.9l-.1.4.1.4zm.9 0l.1-.5-.4-.3c.2-.3.3-.5 0-.6.8-.7 1.4 1.2 2.2 1.4-.2.6-1.7.3-1.9 0zm1.3-6.3c-.2-.9.2-1.1.6-1.4.4.1.1 1.6-.6 1.4zm1.1-7.7c.6.1.3 1.3.8 1.4-.2.7-1.1-.5-.8-1.4zm2.8-6.6l-.4.3.4.3c-.1.7 0 1.4.3 2-.6-.2-.4.5-.8.6-.9-.3-1.2-1.4-1.4-2.6.9.2 1.3-2 1.9-.6zm-1.4 5.5c1-.4.2 1 .8.9-.1.5-.9-.4-.8-.9zm1.1 4.3c-.4.9-.3-1-.3-1.4.4-1 .3.9.3 1.4zm-.3-5.2c.6-.7 1.6-.9 2.5-.6l.4.1.4.1c-.4 1.3-1.1 2.6-1.9 3.7.3-1.2-.2-2.6-1.4-3.3zm3.6 3.7v-.3c1.3-.2-1.3 1.9 0 .3zm0-10.3l-.1-.4-.4.1c-.4-.6-.4-1.4 0-2 .5 0 .6.3 1.1.3-.3.7.4 2.3-.6 2zm-.3-13.4c-.6.1-.6.9-1.1 1.1l-.4-.1-.1.4c-.2-.1-.5-.3-.5-.6l.1-.6-.1-.6h.8c0-.7-.5-.9.3-1.1 0 .3.1.5.3.6-.1-.7.8-.3.8-.9l.4.1.1-.4c1.2.6 2.2 1.6 2.7 2.9l-.1.3.1.3c-.4.1-.6.5-.5.9h-.6v.6l.5.1.3-.4h1.1v.9l-.4.1.1.4h-.3l-.4-.1-.1.4c-.6-.2-1-.8-.8-1.4-1.1-.7-1.8-1.7-2.2-2.9zm.8-20.9l.1-.4-.4-.1v-.3l.4-.1-.1-.4c.8.2 1-.3 1.6-.3l.3.4.5-.1c.1.4.4.6.8.6-.1 1-.7 1.5-.5 2.9-.7.6-1.4 1.1-2.2 1.4l-.1-.4-.4.1c-.1-.5.3-.5.3-.9-.5-.6-1-.5-.5-1.4l.4.1.1-.4h.3v-.6l-.6-.1zm9-5.4c-.1 1.1-1.1 1.4-1.9 1.7l-.4-.4-.5-.2c.5-1 1.8-1.5 2.8-1.1zm-.5-3.1c1.6.3-1 1.3 0 0zm-1.6 49.7l-.4-.1-.1.4c-.5-.3-1.1-.4-1.6-.3-.1-.9-.3-1.7-.6-2.6 1 0 1.2-.8 2.2-.9-.1-.5-.1-1.2-.8-1.1.6-.2 1.7-.3 1.1-1.1-1-1.4 1.2 1.1.8-.9l.4.1.4-.1c.5.7.9 1.5 1.1 2.3-1.3 1.1-1.8 2.8-2.5 4.3zm1.6.6c-.8-.3.3-.8.3-1.1.6 0-.3.7-.3 1.1zm-7.4-26.9c.7-.8 1.5-1.5 2.5-2l-.1.4.4-.1c.6.6.8 1.5.5 2.3-1.3-.5-2.3.3-3.3-.6zm2.5 4.6c-.7.7-1.1-.8-1.6-1.1.3-.7 1.6.2 1.6 1.1zm-1.9-13.8c.1-1.2 1.1-1.3 1.9-1.7l.1.4.1.4c.2 1.3-1.2.9-2.1.9zm2.7.9c.1.6-.2 1.2-.8 1.4l-.3-.1-.3.1c0-.5-.2-.9-.5-1.1.1-.6 1.3-.1 1.9-.3zm-.3 29.4h.6v.9h-.8c-.1-.5.2-.5.2-.9zm2.8-45.7c-.7 1.4-1.7.4 0 0zm.2 2.9c-.1.4-.5.4-.5.9-.3 0-.2-.5-.3-.9h.8zm-.8 10.8v.9c-.6.1-.9-.2-.8-.9h.8zm.3 11.2c1-.3.5 1.5.3 1.7-.7 0-.2-1.2-.3-1.7zm1.1-.3c-.3-.4-1.1-.3-1.1-1.1h1.1v1.1zm.2 6c-.3.6-1.1.6-1.9.6.3-.7 1-1 1.6-.7.2 0 .3 0 .3.1zm-.5-2c0 .7-.9.1-1.1 0 .2-.9.6.3 1.1 0zm-1.4-5.1c-.9 0-.6-1.3-1.1-1.7.4-.7 1.4.6 1.1 1.7zm2.8 10.2h-.5c0-.4 0-.8-.3-.9-.1-.6 1.7.6.8.9zm-1.7-11.7c-1.4-.3-.2-2.3.5-2.3l.3.1.3-.1c-.2.9-.6 1.6-1.1 2.3zm-1.1-24c0-.5.3-.6.3-1.1.2-.1.3.1.3.3.1.4.7.2 1.1.3.6.2-1.2.4-1.7.5zm.6-6c.2-.8.4.4.8.3-.3.9-.5-.3-.8-.3zm.2 2.6c-.6.9-1.1-1 0 0zm-1-6.9c-.6-.4-.8-1.1-1.1-1.7.9.2 1.2-.5 1.6 0-.2.6-.7.8-.5 1.7zm-1.4 10.3c-.2-.2-.5-.3-.8-.3-.2-1.1 1-.6 1.1-1.4.8.5-.8.7-.3 1.7zm-.6 5.1c-.2.5-1 .5-1.1 1.1-.7-.3.6-1 1.1-1.1zm-2.2-1.7c-.1-.9.9-.6 1.4-.9-.2.6-.5 1.1-1.4.9zm-1.9 13.5c1 .8-.8.9 0 0zm0 4.3c-.1.4-.4.6-.8.6.1-.4.5-.7.8-.6zm2.8 19.4c-.7-.3.1-1.2.8-.9 0 .6-.9.2-.8.9zm.5 3.4c.1.7-.8.3-.8.9-.4-.1-.2-.7-.3-1.1.6-.2.7.1 1.1.2zm4.4 14.6l-.4-.1.1.4c-1.5.4-3.2.2-4.1.6.1.2.3.3.3.6l-.4.1.1.4c.1.2-.1.3-.3.3l-.1-.4-.1.4c-.7-.3-1.6-.3-1.6-1.1l.1-.4-.1-.4c.8-.2.3-.4.3-1.1.6.1.7-.2 1.1-.3.2-.5-.3-1.7.3-1.7l.1.4.4-.1h.3l-.1.3.1.3v.3c0 .9.7 1 1.4 1.1-.2-.3-.6-.3-.6-.9 1.6-.4 2.1 0 3.3.6-.2.3.4.6-.1.7zm1.9-.3h-.3l.1-.4-.1-.4h.3l-.1.4.1.4zm-.3-1.1h-.3v.3c-.5-.4-1.1-.6-1.1-1.4.7-.3 1.3-.9 1.4-1.7.4.1.2.7.3 1.1l-.3.6.5.3c-.2.2-.1.7-.5.8zm.6-9.5c-.6-.2-.3-2 0-2.3 1.1.3.2 1.7 0 2.3zm-1.4-34.8c.2-.3.3-.7.3-1.1.9.3.6 0 1.6 0 .7.3-.6 1.1.3 1.4-.2.5-1.7-.2-2.2-.3zm.3-7.8c.3-1.1.9 0 1.9-.3-.1 1.7-.9.1-1.9.3zm6-16.8c-.7.1-.7-.6-.8-1.1h.8c-.4.5 0 .3 0 1.1zm-1.4 38.3h-.5l.1-.4-.4-.1v-.6h-.5l.1-.4-.4-.1c.1-.5-.3-.5-.3-.9l.1-.5.4-.3c.3 0 .5.1.5.3.8-.2.4-1.6 1.4-1.7v.3h.3c2 1.3-.1 3.1-.8 4.4zm.9 7.1l-.3-.1-.3.1c-.2-.2-.3-.6-.3-.9.8-.1 1 .2.9.9zm1.9-8.8c-.3.6-.5 1.3-.6 2-1.6-.1-.4-2.1.6-2zm-.4-3.6l-.1.4c-.6.1-.7-.2-1.1-.3v-.2h-.3c.3-.5.4-1.1.3-1.7h1.4c-.4.4-.4 1.6.6 1.4 0 .3-.1.5-.3.6l-.5-.2zm.1-7v-1.4c.9-.1 1.2 1.5 0 1.4zm1.1 12.9c.4.2.9.4.8 1.1-.4 0-1-.1-1.1.3-.8-.4.2-1.1.3-1.4zm-.3-10c-.7-.4.4-1.2.5-1.7.9.5-.1 1.5-.5 1.7zm-.5-5.5c.5 0 .6.3 1.1.3.1.5-1.6.5-1.1-.3zm-1.1-10c0-.8 1.3-.7 1.6-.3 0 .7-1.1.2-1.6.3zm.5 8.3c-1 0-.7-.4-.5-1.1 1 0 .7.4.5 1.1zm-.5 5.2c-.5 0-.6-.4-1.1-.3 0-.9 1.3-.7 1.1.3zm-.8-1.5c-.6.9-2 .5-2.7 0-.3-2.9 2.4-1.8 2.7 0zm-2.2-9.7c0-.7.9-.1 1.1 0-.2.9-.6-.3-1.1 0zm-.9-5.7c.6.1.7.6 1.1.9.1.3-1.5.1-1.1-.9zm-1.9-5.7l.5.1.3-.4c.8.4 1.3 1.1 1.4 2-1.1-.2-2.3-.3-2.2-1.7zm2.2 61.4v-.3c1.3-.2-1.3 1.9 0 .3zm1.7-10c-.1-.8.1-1.2.8-1.1.5.5-.1 1.1-.8 1.1zm-2.2-4.5c.1-.3.5-.2.5-.6l.4.1.1-.4h.3c1.1-.7-1.2-1.8-.3-2.3l.1.3.1-.3c.4-.2 1.1-.2.8-1.1.6.6.7.6 1.4 0l.2.5.4.4c-.1.6.2.8.3 1.1l-.1.4.4.1c-1.1 1.5-2.5 2.8-4.6 1.8zm4.4-4l.1-1-1-.1v-.3l.4-.1-.4-.1c0-.3.3-.2.5-.3 0-.5-.3-.6-.3-1.1.8-.2 1.5-.5 2.2-.9l.1.4.4-.1c-.5 1.4.1 4.1-1.1 4.9l-.1-.4-.4.1c.2-.6-.1-.9-.4-1zm3.5 10.5l-.4.1.1.4c-1.1.2-1.1-.8-2.2-.6l.1-.5-.3-.2c.3-.8 1.7-.5 2.7-.6l-.1.4.4.1c.1.5-.3.6-.3.9zm-.5-34.8c.2-.3.3-.5 0-.6.4-.8 1.5.1 1.9.3 0 .8-1.6.6-1.9.3zm1.9 16.8c-.1.5-.3-.2-.3-.6.1-.5.4.2.3.6zm-.6 1.2c.6-.1.9.2.8.9-.2-.4-1-.2-.8-.9zm.3 10c-.1-1.1 2-1.2 1.9 0h-1.9zm3.8-2.6c-.3.6-.9-.7-.8-1.4.9-.2.2 1.3.8 1.4zm-.2-7.1c-1.4.2-1.9-.5-2.7-.9.1-.6.3-1.2.6-1.7 1.4 0 1.6 1.4 2.1 2.6zM172.6 99c0-.7 0-1.4-.3-2l.4.1-.1-.4c.8-.1 1.4.1 1.6.6l-.4.1.1.4c-.1.6.4.5.8.6-.5.5-1.3.7-2.1.6zm1.7-8.9c-.5.7-1.7-.6-1.1-1.1.6 0 1.1.4 1.1 1v.1zm-.6-6.9c1 .9-.8 1 0 0zm1.4 8.9c-.3-1 .8-.4 1.4-.6-.1.7-.7.6-1.4.6zm1.9-4.3c-1-.2-.7 1-1.6.9-.1-1-.4-1.1 0-2 .4.3 1.5-.2 1.6 1.1zm-1.9-4.6c.6-.1.7.2 1.1.3.1.5-1.5.5-1.1-.3zm0 11.8c.1 1-1.5.2-1.6.9-.7-.5 1.2-1.5 1.6-.9zm-2.7-13.2c.7-.4 1.4-.6 2.2-.9.1 1.8-1.2.8-2.2.9zm.5-2.9l-.1.4.4.1c-.4.5-.8 1.1-1.9.9-.4-.2 0-1.1-.5-1.1.4-.7 1.2-.9 1.9-.5 0 .1.1.2.2.2zm-.3-5.1c-.8 1.1-.9-.9 0 0zm-.8 2.3c-.8-.1-.6-1.1-1.1-1.4.3-.6 2.1.5 1.1 1.4zm-.5-3.2c-.4.8-1.4.5-1.4-.6.5.2.7.7 1.4.6zm-.9 8.3c-.8 1.1-.9-.8 0 0zm-.8 10.9c0 .9-1.6.8-1.4-.3.8-.2.8.4 1.4.3zm-.8-10.6c.2 1.1-1.5.3-2.2.6-.2-1.1 1.5-.3 2.2-.6zm-2.7-19.4c.9.3.9 1.5 1.1 2.6l-.3-.1-.3.1c-.5-.5-.7 0-1.4 0 .1-1 .4-1.8.9-2.6zM165 82.4c.8-.4-.7-1.6.8-1.4v1.4c-.5-.1-1.2.9-1.1-.3.2-.1.2.1.3.3zm-.3-8.9c-.3 0-.5.1-.5.3-.3-.5-1-.5-.8-1.4.3.4 1.5.1 1.3 1.1zm-2.2-14.6c1.6-.2 1 1.9 0 2v-2zm0 13.8c-.3-.3-1-.1-.8-.9.7-.2 1 .1.8.9zm-1.4-2.6c.1-.5.5-.6 1.1-.6.2.9-.7 1-1.1.6zm.6-9.2c1 1.4-.9 1.8 0 0zm-.8 2.9c.9-.2.8.5 1.4.6-.3.6-1.8.2-1.4-.6zm-.3-4.3c-.1.4-.5.5-.5.9-.3 0-.2-.5-.3-.9h.8zm.8 8.6c-.2 1-1.2.2-1.9.3-.1-.7 1.7-.9 1.9-.3zm-2.2-2.3c-.7-.4-1.1-1.2-1.1-2 .7-.7 1.9 1.1 1.1 2zm-1.3 0c.6.3 1.6 0 1.4 1.1-.8.2-1-.3-1.6-.3.1-.2.2-.5.2-.8zm-1.4-13.2c-.3.5-.8.7-1.4.6.3-.4.9-.7 1.4-.6zm-.3 13.2c.2.9-.5.9 0 1.4.5 0 .6-.3 1.1-.3-.1.5-.6.7-.5 1.4l-.4-.1.1.4c-.1.4-.5.5-.5.9l-.3-.1-.3-.1c-.8-.4-.6-1.8-.8-2.9.8.1.6-.9 1.6-.6zm-1.6-12.3c.1.7-.8.3-.8.9-.8-.3.1-1.2.8-.9zm-.8 18c.3 0 .2.5.3.9h-.8c-.2-.7.4-.4.5-.9zm-2-17.4h.8c0 .8-.8.7-.8 1.4-.6-.1-.1-1.2 0-1.4zm-.5 2.8c0-.1.6-.5.8-.3.2.2-1.1.8-.8.3zm-.6 10.6h1.4c-.3.9-.3 1.9 0 2.9l-.1.4.4.1c-1.9 1.7-1.9-.4-2.2-2.3.8.3.5-.6.5-1.1zm-.8-15.1c1-.2.4 1.3.5 2-.2-.6-.9-1.5-.5-2zm.6 12.3c-.2.4-.4.9-1.1.9.2-.5.4-1 1.1-.9zm-1.4 1.1c-.2.4-.4.9-1.1.9 0-.3-.1-.5-.3-.6 0-.6 1-.1 1.4-.3zm-.5-7.4H147c.3-.5 1.6-1.5 1.6 0zm-1.7-3.8c.8-.1.3 1.1.8 1.1 0 .7-.9.1-1.1 0 .3-.2.4-.6.3-1.1zm.3 21.5c-.1.6-1.5.2-1.6 0 .1-.7 1.4-.2 1.6 0zm-1.4-18c-.4-.3-.9-.4-.8-1.1.7-.1.9.3.8 1.1zm-.5-8.6c.7.1.2 1.3-.6.9.2-.3.7-.3.6-.9zm.5 9.4c-.2.5-.5 1-.8 1.4-1-1-1.2-1.3.8-1.4zm-1.9 7.5c-.6-.1-.5-.8-1.1-.9.2-1.2 1.9.3 1.1.9zm-.3-19.8c.8.5-.6 1-1.4.9.2-.7 1.3-.3 1.4-.9zm-.2 5.2c0 .6-.7.4-.5 1.1-1 .3-.5-1-1.1-1.1 0-.6 1.4-.2 1.6 0zm-1.1 6.6c-1 .3-.7-1.3-.8-1.1.5-.7 1.2.9.8 1.1zm-.3 17.4c-.6.9-1.8-.3 0 0zm-1.7-19.4h.6v.6h-.6v-.6zm.3 10.3c-.1.4-.4.6-.8.6-.1-.7.4-.6.8-.6zM139 83.2c-.1-.6.2-.8.3-1.1.5.3.7 1.3-.3 1.1zm.5-36.3c0 1.1-1.2.8-2.2.9.5-.5 1.6-1.4 2.2-.9zm-1.3 17.5c.7-1 .6 1.4 0 0zm-.3-15.2c.1-.5.5-.7 1.1-.6.3.9-.6.6-1.1.6zm.5 12.3c.1-.2.3-.3.3-.6h.6c.1.6-.4.6-.9.6zm-1.1 10.6c.8.2.9 1.1 1.6 1.4l.1.4.4.1c-.6.4-1.2.7-1.9.9.3-1.2-.7-2.1-.2-2.8zm-.5-.9c-.4-.4-.6-1.1-.3-1.4.9.3.2.5.3 1.4zm-.3-24.5c-.1.4-.4.6-.8.6.1-.5.4-.7.8-.6zm-1.1 17.1h-1.1c-.2-1.1 1.3-1.1 1.1 0zm-1.1-13.2s-.5-1-.5-.9c.1-.7.9.5.5.9zm-.2 16.9c-.3.3-.1 1.1-.8.9-.1-.6.2-.9.8-.9zm.2 20.9c-.3.5-.7.7-1.1.3.3-.9.4-.4 1.1-.3zm-1.6-5.2c-.2-.1-.3.1-.3.3-.3 0-.2-.5-.3-.9.5 0 .6.3.6.6zm-.6-2.5c-.5 1-.8-.7-.3-.9 1 0-.5 1 .3.9zm0-26.9c-.1.6-.7.6-.8 1.1-.7-.2.4-1.1.8-1.1zm-1.1 28c.3 1.3-1.2.5 0 0zm-.2 11.2c.1.2-.1.3-.3.3l-.1-.4-.4.1c-.3-.7-1.1-1-1.1-2 .7-.1 1-1.2 1.6-.6l-.1.4.4-.1c-.2.8-.3 1 .3 1.4l-.5.3.2.6zm-7.7 46h-.8l-.1-.6-.2.6c-.9-.5-1.3 1.1-.3.9l-.1.4.4-.1c.1.8-.1 1.5-.5 1.7l-.4-.1.1.4c-.7.4-1.2 1.2-1.1 2-1.2-.9-1.8-2.3-1.6-3.7l.5.1.3-.4h.5c.1-.2.3-.3.3-.6-.3-.2-.3-.7-.8-.6l.1-.5-.4-.3c-.1-.5-.9-.3-.5-1.1l.4.1.4-.1c.3 0 .2-.5.3-.9.5 1.6 1.7 1.6 3 1.4l.4.1.1-.4c.3 0 .2.5.3.9l-.4.3.1.5zm-1.9-9.7c-.3-1.1.8-.7.8-1.4 1.1.2 0 1.3-.8 1.4zm1.1-8.3c.1-1.2.3 3.2 0 0zm-1.1 12.3c.6.2 1 .8.8 1.4-.7-.1-.6.5-1.4.3-.1-.9.4-1.1.6-1.7zm-.8-9.2c-.8-.1-.6-1.2-1.4-1.4.5-1 1.9-.2 1.9.9-.2.1-.5.2-.5.5zm-.8 0c.1.7-.8.3-.8.9-.5-.5-.8-1.2-.8-2 .9-.1.8.9 1.6 1.1zm-.9 9.4c-.6-.1.3-.8.3-1.1.9.3-.1 1-.3 1.1zm4.1-14.8c0-.7 1.1-.4 1.1-1.1.8.4-.5 1.1-1.1 1.1zm.9.8c.7 0 .1 1 0 1.1-.7 0-.1-.9 0-1.1zm.5 8.6c-.4-.1-.2-.7-.3-1.1.5.3.7.7.3 1.1zm-2.2-10.3l-.1-.4-.1-.4v-.6c-.4.2-1.4-.3-1.4.3l-.5-.1-.3.4c-.9-.2-1.8-.7-2.5-1.4.4-1.4 2.1-1.4 3.6-1.7l-.1.4.4.1c.4-.2 1.4.3 1.4-.3l.1-.4-.4-.1c0-.8 1.9.2 1.9-.6 1.4 1.8-.2 4.6-2 4.8zm-5.2 32.9c0-.2.1-.3.3-.3v.3h.3c.1.2-.1.3-.3.3v-.3h-.3zm.6-19.7h-1.6c.2-.6.5-1.2.8-1.7.4.3 1 .3 1.1.9l-.4.3.1.5zm-5.2-8.6c0 .2-.1.3-.3.3l-.1-.4-.4.1c-.9-.3-.1-.5-.3-1.4.5-.5.3 0 1.1 0l-.1.4.4-.1v.6h-.7l.4.5zm-1.1 9.1c.7-1.3 1.7-.3 0 0zm.8 8.9c-.1.4-.4.6-.8.6.1-.4.4-.6.8-.6zm-.8-10.9v-.9c.5 0 .6.3 1.1.3-.1.6-.5.7-1.1.6zm-8.5-16.5l.1-.4-.4-.1c0-1.3-.7-.9-.3-2.3.5.5 1.4.6 1.9 1.1v1.4c-.5.1-.8.8-1.3.3zm.8 2.8h-.8c.1-.4.5-.4.5-.9.4.1.3.6.3.9zm.8-27.7c0 .6-1.2.1-1.6.3 0-.6 1.1-.1 1.6-.3zm-.5-12.3c.2.5 1.3-.1 1.1.9-.5-.2-1.2-.1-1.1-.9zm0 27.7c0-.6.7-.4.5-1.1h1.1c-.4.5-.6 1.2-1.6 1.1zm1.6 2c-.6.9-1.7-.3 0 0zm-2.2 0c.3.1.2.3 0 .3.4.8.2.3-.5.3.1-.3.5-.2.5-.6zm-.2 3.5c.4-.6 1.7-.2 2.2-.6-.1.6-.3 1.2-.5 1.7-.7-.3-1.2-.8-1.7-1.1zm1.6 6c.5.4.6 1 .2 1.5l-.2.2c-.5 0 .3-1 0-1.7zm.8 2.8c-.1.7-.8.9-.8 1.7-1.1-.3-.3-2 .8-1.7zm.9.9l.3.1.3-.1c.1.5.6.7.5 1.4-.5.3-.6 1.1-1.1 1.4l-.1-.4-.4-.1c-.8-.8-.1-1.9.5-2.3zm0-15.2c.2-1 1.4.7.5.9h-.5c.1-.2.4-.8 0-.9zm2.1 7.5c-.6-.1-.5-.8-1.1-.9.4-.8 1.5 0 1.1.9zm0-4.3c.4-1.7 1.3 1 0 0zm-.5 5.7c-.3-.4-.8-.7-.8-1.4.4.3 1.5.6.8 1.4zm-1.1-5.4c-.8-.3.6-.4.3-1.1.4.1.2.7.3 1.1-.3-.2-.5-.4-.6 0zm-.8 3.1c1.2.1-.3 1.7 0 0zm.5 3.4c-.7 1.6-1.5.8 0 0zm0 9.2c.3.2.7.3 1.1.3 0 .8-1.3.7-1.1-.3zm1.4 3.7c-.2.5-.6 1.1-1.1.6.2-.4.6-.6 1.1-.6zm-.6-9.7c.4-.4.1-1.4.8-1.4l.3.4.5-.1c0 .2.1.3.3.3l-.1.4.4-.1c.2 1-.3 1.2-.5 1.7-1 0-.9-1-1.7-1.2zm0-19.5c-.9-1 1.3-2.3-.5-2.6l.1-.4-.4-.1c-.1-.4-.4-.7-.8-.9h-.3v.3c-.2-.3-.7-.2-.8-.6l-.1-.4-.1-.4c1.5-1 4.2-.4 5.7-.9-.8 1.5 1.1 2.5-.3 3.4.1.4.4-.1.8 0 .2.4-.3 1.5.3 1.4-.4 1.3-2.2 1-3.6 1.2zm0-32.5c.7-.1.7.6.8 1.1h-1.4c.1-.6.8-.4.6-1.1zm.9-3.5c.4.3.7.9.5 1.4-.6 0-.6-.7-.5-1.4zm-1.9 3.2c.2-.3.3-.7.3-1.1.7 0 .5 1.1-.3 1.1zm.8 10.3h1.4c-.5 1.4.4 1.8.5 3.2-1-.9-3.1-.6-3.3-2.3.7-1 2.1.6 1.4-.9zm-.3 6.5c.9-.1.6.9 1.6.6-.3 1.2-.8 1.7-2.5 2l.1-.4-.4-.1c.4-.8 1.2-1 1.2-2.1zm3.6-33.7c1.2 0-.1.9.3 1.7-.7 0-.2-1.2-.3-1.7zm-.3 34.9c.7-1 .6 1.5 0 0zm.8 2.6c-.2.9-.7.4-1.4.3.2-.2.3-.5.3-.9.9-.3.7.4 1.1.6zm1.6 22.8c-.3.7-.9 1.1-1.6 1.1-.3-1.1.7-1.2 1.6-1.1zm.9-39.7c.5.5-.6 1.8-1.4 2-.8-1 .7-1.6 1.4-2zm-.3-4.3c.5 0-.1 1.4-.8 1.1-.3-.9.9-.3.8-1.1zm2.2 7.4c.7.3.1 2.2-.5 1.1 0-.4.8-.2.5-1.1zm1.3 18.9c.8.3 1.4.9 1.6 1.7-.7-.9-1 .7-1.6 0l.1-.4-.4-.1c-.6-.8.5-.3.3-1.2zm2.8-22.6l-.1.4.4.1c-.7.7-1.7 1.1-2.7.9.3-.6.6-1.1.8-1.7.6 0 .7.5 1.6.3zm-.6-7.7v-.6c.6-.1.5.4.5.9-.1-.1-.2-.3-.5-.3zm2.2 1.7c-.3.7-1.3-1-.5-1.4.6.3-.4 1.1.5 1.4zm-.3 17.2c.4.8 1.1 1.3.3 2-.6-.3-1.1-1-1.1-1.7.4 0 .8 0 .8-.3zm2.5-14.9c.3-.5.4-1.1.3-1.7.9.1.6 1.8-.3 1.7zm.8-4.9c.4-.1.5.3.8.3.2.6-1.2.4-.8-.3zm-.5 21.5c1 1.2-.8 1.1 0 0zm-.3-28.9c-.7 0-.1-1 0-1.1.4.1.4.5.8.6 0 .4-.8 0-.8.5zm.3 27.7c-.1.4-.4.6-.8.6 0-.4.4-.6.8-.6zm-.3 14.6c.1-.1-.8-.3-.8-.3-.1-.4 1.5-.4.8.3zm.6 11.2c.2.6.7 1 .5 2l-.4-.1.1.4c-.1.2-.3.3-.3.6l-.4.1.1.4c-1.3.1-1.7 1.3-3.3 1.1 1.5-1.3 1.2-4.3 3.7-4.5zm-2.5 6.8c.8-1 1.6-.2 1.9-1.7h.8c.4.4.3 1.2.3 2-.9.3-1.8.5-2.7.6l.1-.5-.4-.4zm-1.4-19.4c.4-.7.9-.5 1.6-.3-.1 1.5-.9 1-1.6.3zm-1.1-1.7c.2-.6 1.2.4 1.1 1.1-.7 0-.4-1.1-1.1-1.1zm2-.9c0 .7-.9.1-1.1 0 0-.7.9-.1 1.1 0zm-2.5-2c.1-1 1.1-.2 1.6 0-.4.4-1.1.1-1.6 0zm.5 15.5v.6h-.5v-.6h.5zm-1.1-30.4c0-.6 1.2-.1 1.6-.3.1 1.5-1 .7-1.6.3zm-.2 27.5c-.4-.1-.6-.5-.5-.9.3.1.5.5.5.9zm-2.2-15.2c.5.1 1.2.1 1.1.9-.7.1-1.2-.1-1.1-.9zm-1.1-11.1v-1.4c1.5-.1 1.5 2.4.3 1.7l.1-.4-.4.1zm-.6-6.6c.4-.3.7-.8 1.4-.9-.2.6-.5 1.1-1.4.9zm.6 1.2c.7.4.2 1.9-.8 1.4.3-.5.6-.9.8-1.4zm-.8 2c1.6.3-1 1.3 0 0zm-.3 2.8c-.7 0-.1-1 0-1.1.7 0 .1.9 0 1.1zm-.3 17.7V91l.4-.1-.1-.4c.9 0 1.9-.1 2.2.6l-.4.1.1.4h-.3c0 1.3.9 1.5 2.2 1.4.2 2.4-3.2 3.2-5.2 3.1-.2-1.3.9-1.2 1.1-2-.3-1.2-1.6-1.4-1.6-2.9.5.3 1.1.3 1.6 0zm1.1 14.6c-.2-1.1 1.9.1 1.6-1.1.5.1 1.2.1 1.1.9-1.4-.1-1.6 1.3-2.7.2zm1.1 18.6c-.8 1.1-.9-.9 0 0zm-2.7-6.9c-1-.3-.2-.8-.3-1.7h1.1c.1 1-1 .7-.8 1.7zm-.6-3.4c-.6-.2-.3-1.8 0-2 .8.3 0 1.5 0 2zm.6-6.8c-1-.4.6-.4.3-1.1.2.2.5.3.8.3-.1.5-1.1.2-1.1.8zm1.3 6.8c.6.2.6.4.3.9h-.5c-.1-.5.2-.5.2-.9zm.6-14.6c.6-.4.3-1.8 1.4-1.7-.2.8-.7 1.4-1.4 1.7zm2.7.6c.1.5-.3.5-.3.9-.5.1-.4-1.3.3-.9zm-3.3 40c.2.6-.8.9.3.9-.2.4-.9.4-1.4.6 0-1 .4-1.4 1.1-1.5zm-.2-13.4c-.2-1.1 1.9-1.6 2.2-.6v.5l-.3.4c-1 .2-1.1-.5-1.9-.3zm1.9-10.3c.4-1 .5.5.3.6-.2 0-.4-.4-.3-.6zm.2-3.4c.9-.1.7.8 1.4.9 0 .5-.9.2-.8.9-.7-.1-.5-1.1-.6-1.8zm.3 24c-.2-1.2.6-1.3 1.1-1.7.6.4-.5 1.5-1.1 1.7zm9.1-51.8c-1.1 1-1.4-.7 0 0zm3 26.1l-.4.1.1.4c-.9-.2-1.1.4-1.9.3-.4-.7-.5-1.6-.8-2.3.9-1.8 2.8-.1 3 1.5zm1.3-48.9c-.7 0-.6-1.1-.3-1.4.7-.1.2 1 .3 1.4zm-.5-6.6c-.4-.2-.9-.4-.8-1.1.6-.2 1.1-.9 1.6-.3-.2.5-1.1.3-.8 1.4zm.3 20.9c-.5 1-.7-.6-.6-1.1.8-.3-.2 1.3.6 1.1zm.2 6c-.4-.1-.2-.7-.3-1.1.5.2.7.7.3 1.1zM128 58.9c-1.5-.1-.4-1-.3-1.7 1.3 0-.1.9.3 1.7zm-.2 2.3c-.1.2-.3.3-.3.6-.2-.1-.3-.3-.5-.3 0-.2.3-.3.3-.6.1.1.2.3.5.3zm.2 33.2c-.4.4-.5 1.2-1.6.9.5-.6-.3-1.6 0-2.9 1 .2 1.4 1 1.6 2zm-2.7-38.3c0-.6 1-.1 1.4-.3 0 .6-1 .1-1.4.3zm.5 6.6c-.2-.1-.3-.3-.5-.3v-.6c.6-.1.5.4.5.9zm-.2 35.4c1 .5-.7.6-.5 1.1-.8-.2.6-.6.5-1.1zm-.3 16.6l.5.1.3-.4c.4.3.7.8 1.1 1.1-.4.6-1.8 1.1-2.2.9.1-1 0-1.5.3-1.7zm2.2 10.6l.1.4.4-.1c.5.3 1.4.1 1.6.6-.4.1-.6.5-.5.9l-.4-.1-.1.4c-.1.7-.7.7-1.1.3l-.4-.1-.4.1c.3-1.3-.1-1.7.8-2.4zm-.4 3.2l.4-.1c.7 0 1.5-.1 2.2-.3l-.1.4.4.1c-.1.5-.6.7-.5 1.4h-.5l-.1.4c-1.1-.3-2.2-.6-2.2-2l.4.1zm1.2-3.8l-.1-.4-.4.1c.1-.5-.3-.6-.3-.3-1.1-2.8 1.7-3.2 2.7-2.9l-.1.5.4.3c-.3 1.3-1.1 2.2-2.2 2.7zm1.1-16.3c.1-.9-.3 1.9 0 0zm.8-24v-.6c.6-.1.5.4.5.9-.1-.1-.2-.3-.5-.3zm0-9.5c.6.2.1 1.6.3 2.3-1.1-.3 0-1.1-.3-2.3zm-1.6-6.8c-.1-.9.8.7.8-.3 1 .5-.6.8-.8.3zm0-20.6c.8-1.6 1.7-.5 0 0zm.8 4.9l-.1.4.4.1v.3c-1.6-.3-3 .9-3.8-.3.5-.4.4-1.5 1.4-1.4 0 .8 1.1.5 2.1.9zm-2.7-3.5c.2 1-1.1.4-.8 1.4-.5-.1 0-1.3-1.1-.9.2-.5 1.6-1.6 1.9-.5zm-.9 5.8c.3 1-.8.5-1.4.6.4-.5.9-.8 1.4-.6zm-1.3 3.4c-.6-.1-1-.6-1.1-1.1.4.3 1.2.2 1.1 1.1zm-.3-15.2c-.1 1.5-.8.3-1.6.3.5-.7.9.3 1.6-.3zm-1.9 26c.5.3.3 1.2.5 1.7-.7 0-.5-.9-.5-1.7zm.3 25.2c-.1.4-.8.1-.8.6-.9-.4.4-1.3.8-.6zm-1.4-42.6c.6 0 .1 1.2.3 1.7-.3-.2-.3-.7-.8-.6 0-.5.7-.3.5-1.1zm-.5 4.3c1 .9-.9 1 0 0zm-1.1-3.4c.2.2.5.3.8.3.1.7-.8.3-.8.9-.9-.3.2-.7 0-1.2zm-.3 2.3c.2.6-.5.4-.5.9-.7-.2-.1-1.2.5-.9zm-.8 6.2c.3 0 .2.5.3.9-.6-.1-1 .1-1.1.6-1.1-.7.6-1 .8-1.5zm-3.3-6c.8-.4.8 1.3 0 .9v-.9zm1.1 2c.2.9-.9.4-.8 1.1-.3-.1-.2-.6-.5-.6.1-.3.8-.3 1.3-.5zm.2 5.5l-.1.4.4.1c-.2.6-.7.8-1.4.9l.1-.4-.4-.1c0-.2-.2-.3-.3-.2-.1 0-.2.1-.2.2-.8-.5 1.4-1.9 1.9-.9zm-4.6.8c.5-.5 1.2-.7 1.9-.6-.2 1.3-.8.5-1.9.6zm1.4-10c-.2.4-.4.9-1.1.9.2-.4.4-.9 1.1-.9zm-.6 5.7c0 .7-.6 1.3-1.4 1.4.1-.7.7-1.3 1.4-1.4zm-1.1-14.3c.1 1-.8.9-1.1 1.4-.8-.5.2-1.6 1.1-1.4zm-1.3 22.3c-.6.9-1.8-.3 0 0zm-.6-1.7h-.8v-.6h.8v.6zm-.8-13.1c-.4-.1-.2-.7-.3-1.1h.5c-.1.2.1.3.3.3-.1.3-.4.4-.5.8zm.3-8.6c.9.6-1.1 1.4-1.4.9.1-.7 1.2-.3 1.4-.9zm-1.1 3.7c.5.2.2.7-.3.6 0 .3.1.5.3.6 0 .6-1 .1-1.4.3-.1-1.1 1.3-.6 1.4-1.5zm-1.7-1.1c-.2 0-.3.1-.3.3-.3 0-.2-.5-.3-.9.5-.1.6.2.6.6zm0 2.3c-.2.4-.2 1.1-1.1.9.3-.5.4-1 1.1-.9zm-1.3 4.2c.9-.3.4.9.5 1.4-.5-.1-1.1-.8-.5-1.4zm0 22.3c-1 .2-1.3-.3-1.9-.6.2-.4 1.9-.1 1.9.6zm-1.4 3.8v.6h-.8v-.6h.8zm0-14.6c.7.2.1 1.4-.5 1.1-.3-.8.5-.5.5-1.1zm.5 5.4c.3 1-1.1.4-1.6.6.4-.4 1-.6 1.6-.6zm-2.2-12c-.4-.3-.7-.9-.5-1.4.9-.3.4.9.5 1.4zm.3 19.7c.1.6-1.2.4-.8-.3.4 0 .5.3.8.3zm-2.7-13.7c-.7-.9.2-1.9.3-2.9 1.3-.3.7 1.3 1.6 1.4-.6.6-1.2 1.1-1.9 1.5zm.3-5.4c.7 0 .6 1.1.3 1.4-.7.1-.2-1-.3-1.4zm.5-3.2c.4-.1.5.3.8.3.1.6-1.2.4-.8-.3zm-1.1-3.7c.6-.1.7.2 1.1.3.1.5-1.5.5-1.1-.3zm1.1 17.5c-.7.1-.6-.5-1.4-.3 0-.5 1.8-.6 1.4.3zm.6 2c-.4.6-1.2.8-1.8.3 0 0-.1 0-.1-.1.3-.7 1.2-.5 1.9-.2zm-2 14c2.1.2 3.4-1.8 4.9-.6l-.4.1.1.4c-1.3.7-4.3 2.8-5.2.6l.4-.1.2-.4zm3.9 47.4c-.8-.3.1-1.2 0-1.7 1.4.2-.5.8 0 1.7zm-.9-3.4c0-.5-.3-.6-.3-1.1.6 0 .8.5 1.6.3-.1.5-.6.7-1.3.8zm-.2 4.8h-.8l.1-.5-.4-.3c-.2-1 .5-1 1.1-1.1-.1 1.1.3 1.1 0 1.9zm0 2.6c-.4-.1-.4-.5-.8-.6-.2-.8.5-.6.5-1.1.6 0 .1 1.2.3 1.7zm-.3 1.2c-.4-.1-.6-.5-.5-.9.3.1.5.5.5.9zm-.3-7.5c-.9 0-.9-.9-1.9-.9 1-.6.4-.9 1.1-1.7.7.6 1.1 1.4 1.4 2.3-.3 0-.5.1-.6.3zm-10.6-.3c.6-.1.3.8.8.9-.5.9-1.7-.4-.8-.9zm.8 4.1c-.1.2-.3.3-.3.6h-.6c0-.8-.5-.6 0-1.1.3.1.3.5.9.5zM90 121c.1-.7 1.2-.2 1.4 0-.3.8-.7-.4-1.4 0zm-1.9-12.6c.9-.2 1.1.4 1.9.3l-.1.4.4.1c-.3 1.1-2.9.9-2.2-.8zm.8 4v-1.1c1.1-.2.9 1.2 0 1.1zM87 89c.6-.3-.1-1.3-.3-.6l-.4-.1-.1.4c-1.1-.3-.2-1.4-.3-2.3h.3v-.3c1.3.4 2.5 1.2 3.3 2.3.1 1-1.3 2-2.2 1.1l.1-.4-.4-.1zm-.5 12.3v-.6h.5v.6h-.5zm-.3 9.4c1.1.6-.4 3.3 0 0zm.8-12c-.8 1-.9-.9 0 0zm-3.3 16.8c-.2-.3-.3-.7-.3-1.1.6-.1 1.1 0 1.6.3 0 .8.1 1.6-.3 2-.6.1-.3-.8-.8-.9l.1-.4-.3.1zm-.8-5.4c.5.5.3 0 1.1 0-.3.5 0 1.5-.8 1.4.2-.8-.4-.7-.3-1.4zm-4.1-6.3c-.5-.2-.2-.7.3-.6.1-.2-.1-.3-.3-.3 0-.6 1.2-.1 1.6-.3.1 1.1-1.6.2-1.6 1.2zm1.6 5.2c-.2.5-.6 1.1-1.1.6.3-.4.7-.7 1.1-.6zm-2.4 1.1c-.3-.8-.1-1.1 0-2.3.6-.1.7.2 1.1.3-.9.7.3 1.9-1.1 2zm1.3-34.3c-.6-.3-.6-1.2-1.1-1.7.8-.8 1.1-2.1 1.9-2.9 1.9 1.5-.1 3.4-.8 4.6zm2-1.4c.1.7-.1 1.2-.8 1.1 0-.5 0-1.2.8-1.1zm-2.8 18.3c.1-.4.5-.5.5-.9.5.1.6.5.6 1.1-.6.2-.7-.1-1.1-.2zm1.1 4c-.8 0-1.8.2-1.6-.9.8.6 1.6-.5 1.6.9zm-.8-15.5c-.8-.4.3-1 0-1.7h.8c.3 1.1-.7 1-.8 1.7zm-1.1-3.1c-.3-.9.4-.7.5-1.1.6 0 .1 1.3-.5 1.1zm.8 7.1c.8.6-.8 1.1-.8 1.7-1-.8.7-1.1.8-1.7zm1.4 2.6c-.6-.1.3-.8.3-1.1.8.2-.2.9-.3 1.1zm0-8.8c0-.3-.3-.2-.5-.3.4-.7.1-2 .5-2.6 1.1-.2.7 1.2 1.4 1.4-.5.5-.6 1.3-1.4 1.5zm1.4 28.5c.3 0 .5.1.5.3v.6h.5c.1 1-.2 1.5-.8 1.7l-.1-.4-.4-.1c-1-.7.6-1.1.3-2.1zm.2-8c.2-.8.9.2 1.4 0-.2 1-.8.2-1.4 0zm1.4 4c-.5 0-.6-.4-1.1-.3-.1-.5 1.5-.5 1.1.3zm-.8 3.5c-.2-.8.5-.6.5-1.1.5.1.6.5.5 1.1h-1zm2.7-32.9c.1.9-.4 1.1-.5 1.7-1-.2-.4-1.8.5-1.7zM84 63.8c.3.1.2.6.5.6-.1.8-.8 0-.5-.6zm1.4 6.9v1.1c-.8 0-1-1.4-.3-1.4v.3h.3zm3.2-2.9l.4-.1-.1-.4h2.7c-.7 1.1-1.8 1.8-3 2-.5-.6.2-.6 0-1.5zm11.3 31.7c-.4 2-4 .5-5.2.6.9-2.1 3.1-.9 5.2-.6zm-4.1-12.8c1.2-1.1 1 .8 0 0zm5.2 8.8c-1.4 1-1.6-.7 0 0zm-.3 4c-.6.1-.9-.2-.8-.9.6 0 .8.3.8.9zm.3-10.3c-2 .9-3.2-.3 0 0zm-1.4 3.5c0 .5-1.8.6-1.4-.3.5.5.8-.4 1.4.3zm0 2c-.7-.1-1.4-.4-1.9-.9.4-.6 2.4-.4 1.9.9zm-.3 7.1c-.1.4-.4.6-.8.6.1-.4.4-.6.8-.6zm-2.7 12.6c-.7.1-.7-.6-.8-1.1.3-.2.7-.3 1.1-.3.1.7-.5.6-.3 1.4zm-.6-8.3c-.1-.6.2-.8.3-1.1.9.2 1.1 1.2 1.6 1.7-1 .2-1-.6-1.9-.6zm1.1 2.3c.6.1.5.8 1.1.9-.5.9-1.8-.4-1.1-.9zm-1.6-6.6c-.9.3-.7.1-1.4-.3.1-.8 1.5-.6 1.4.3zm-1.9-10.3c.6-.4 1.2-.6 1.9-.6-.1.9-1.2.6-1.9.6zm-.9 22c1.4-.7 2.1 1 0 0zm-1.1-5.7c.3-.5.5-1 1.4-.9-.5.3-.4 1.1-1.4.9zm1.1-8.3c-.5-.1-.5-.8-1.4-.6l.1-.3-.1-.3c-.1-.7-1.2-.8-.5-1.4 1-.2 1.3.3 1.9.6v2zm-.8-7.7c-.8.2-.6-.6-1.1-.6-.1-.3 1.4-.1 1.1.6zm-.5-1.4c-.6.1-.9-.2-.8-.8.2.2 1 0 .8.8zm-.6 11.4c.1.5-.3.5-.3.9H90c-.1-.5.3-.5.3-.9h.5zm-1.6 3.7c-.2.5-.3-.2-.3-.6-.8-.3.6-.2.3.6zm-1.1-4.5c.5-.5 1.2-.7 1.9-.6.3 1.4-1.7 1.4-1.9.6zm1.9-8.9c0 .6-1 .1-1.4.3 0-.6 1-.1 1.4-.3zm0-2.3c-.8 1.1-.9-.9 0 0zm-1.4-16.9c-.4.9-.3-1-.3-1.4.4-.9.3 1 .3 1.4zm-.2 1.5c.2-.8.3.7.3.9-.2.5-.6.2-.3-.9zm-.3 7.4c-.7 0-.1-1 0-1.1.7 0 .1.9 0 1.1zm-1.4-16.6c0-.6 1-.1 1.4-.3 0 .7-1 .2-1.4.3zm.6 3.2v.3h.3c1.2 1-.8 2.5-1.1 3.7-.6-.2 0-1.8-.5-2l.1-.4-.4.1c-.5-.7.8-1.4 1.6-1.7zm-.6 8c-.7-1.3-.5-2.9.5-4 .1.9 1.4 3.4-.5 4zm-.2 2.3c.1-.6.7-.6.8-1.1.4 0-.1 1.3-.8 1.1zm-.3-14c-.6.8-1.8-.4 0 0zm-1.4 13.1l.3.4.5-.1c-.2.9.5.9 0 1.4-1-.1-1-.4-1.9 0 .5-.5.6-1.3 1.1-1.7zm-.5 11.4c-.4-.3-.6-.7-.5-1.1.4.1.5.5.5 1.1zm.5 0c.5 0 .6.4 1.1.3.2.9-.3 1-.3 1.7l-.4.1.1.4c-.8.2-1-.3-1.6-.3.2-.8.9-1.3 1.1-2.2zm-.5 18.3c-.1-.6 1.2-.4.8.3h-.5c0-.2-.2-.2-.3-.3zm1.1 13.5c-.1.4-.5.4-.5.9-.8-.2-.1-1.2.5-.9zm-.6-.6c.2-.2.3-.5.3-.9.6-.1.5.4.6.9h-.9zm.3-1.4c.3-.4.3-1.1.6-1.4.5.1.4 1.9-.6 1.4zm6.8-6.9c-.1.6-1.4.1-1.9.3.5-.9.8-.2 1.9-.3zm-1.1 7.7c-.1-.5 1.5-.5 1.1.3-.5-.5-.5.2-1.1-.3zm2.2 4c-.9.1-.7-.8-1.4-.9.1-.3 1.7.1 1.4.9zm-.3-3.4c.2-.5.5 0 .8 0-.1.5-.4 0-.8 0zm1.1 7.1c-.1.4-.4.6-.8.6.1-.4.5-.6.8-.6zm-.8 9.2l.1.4.4-.1c.4.3.7.9.5 1.4l-.5-.1-.3.4h-.8c.7-.2 0-1.8.6-2zm.6-18.6c-.8 0-.9-.7-1.6-.9-.1-.9.7-.8.8-1.4.7.4 1.4.7 2.2.9-.7.2-1 1-1.4 1.4zm1.9-.6c.9 0 1 .8 2.2.6-.8.7-2 1.8-3.3 1.1-.1-1 1.3-.5 1.1-1.7zm2.2 17.2c1.2.1-.3 1.6 0 0zm0-20.3c.5-.8.7-1.7.5-2.6.6-.2.8-.7 1.6-.6.7.7-.4.5-.3 1.4l-.4.1.4.1c-.4.7-1.1 2.2-1.8 1.6zm2.7 2.9c-.7.2-.6-.6-1.1-.6.2-.7 1.4-.2 1.1.6zm.3-2.9l-.4-.1.1.4c-1.1-.1-1.2-.9-.5-1.4l.4.1-.1-.4c.5 0 .4-.8 1.1-.6v.6l.5.3c-.3.4-.6.8-1.1 1.1zm-2.2-63.8c-.8 1.1-.9-.8 0 0zm-.3 23.8c-.2.2-.3.5 0 .6-.1.5-.5.7-1.1.6.1.3.5.2.5.6l-.4.1.1.4H96c.2-1-.4-1.1-.3-2 .6-.4 1.8-1 2.5-.3zm-1.3-8.9c.1-.4.4-.6.8-.6-.1.4-.5.7-.8.6zm0-15.4c0 .6-1.2.1-1.6.3-.1-.7 1.1-.2 1.6-.3zm.5 3.1l-.1.4.4.1c0 1.1-1.3.9-1.4 2-.9.1-.8-.9-1.4-1.1.3-1 1.2-1.5 2.5-1.4zm-1.6 17.7v.9c-.3-.2-.7-.3-1.1-.3 0-.5.4-.6 1.1-.6zm-.3 5.8c.1 1.6 3 .3 3 2-.5.5-.3 0-1.1 0 .3 1.3-.6 1.3-.8 2 .5.3 1.6 1.5 1.9 1.1.8.8-.2 2.6-.5 2.3l-.5-.1-.1.4c-1.5.3-2.8 0-3.3-1.4l.1-.4-.4-.1c-.1-.9 1.4-.1 1.1-1.1-.6-.4-1.2-.6-1.9-.6l-.1-.4-.4.1c.4-1.7 1.5-3.1 3-3.8zm-3.3-2.3c.1-.4.4-.6.8-.6-.1.4-.4.6-.8.6zm1.1-1.2v-.6h.5v.6h-.5zm.5-13.1c.1-.5.3.2.3.6-.1.5-.3-.2-.3-.6zm0 2.8c-.6.9.9 1.9.3 2.9-.4-.2-.7-.4-1.1-.6l.1-.5-.4-.3c.2-.7.4-1.4 1.1-1.5zm-1.3 8c1.2.1-1.1 2.1 0 0zM91.7 83l-.4-.1-.1.4c-.4-.1-.4-.5-.8-.6 0-.7.4-.9.8-1.1l.1.4.4-.1c0 .1.6 1 0 1.1zm-1.1-22.1c.6.1.5.8 1.1.9-.4.8-1.5 0-1.1-.9zm-3.3-3.7c1.1.8 1.9 1.9 2.2 3.1l-.5-.1-.1.4c-2-.5-3.3-1.7-5.5-2 .1-2.1 3.6-.1 3.9-1.4zM84 81c-.2.2-.4.8 0 .9-.4 1.2-1.1-1.4 0-.9zm-.6 9.7v.6H82c.4-.2 1.1-1.4 1.4-.6zm-1.3-30c-.2.7-1 1.1-1.6.9.4-.6.9-.9 1.6-.9zm-1.7 7.1c.8.4-.2 1.1-.3 1.4-.7-.2.3-1 .3-1.4zm-2.4-.6l.3.4.5-.1c.1 1.3-.2 2.1-1.4 2 0-.8.2-1.6.6-2.3zm-.9 7.2c.5.2 0 .5 0 .9-.4-.3 0-.6 0-.9zm-.2 6h.5v.6h-.5v-.6zm.2 14v.6h-.5v-.6h.5zm-1.6-16.9c-.1.7-1.2.2-1.4 0 .3-1 1-.3 1.4 0zm-3.3 8c-.1.5-.6.7-.5 1.4-1.1-.2-.8-1.5.5-1.4zm-2.4 4.6c.3.2.6 1.8.3 1.7-1.3 0-.1-1-.3-1.7zm.2 4.6c-.1.2-.3.3-.3.6h-.5c0-.3-.1-.5-.3-.6.1-.8.5.4 1.1 0zm-2.7 9.4c-.1-.6.4-.5.8-.6-.1.4-.4.7-.8.6zm0-2.6c.2-.7.9-.8 1.1-1.4 1.1.3-.2 1.5-1.1 1.4zm1.4 3.2c.1-.7.7-.7 1.1-.3-.1.4-.7.2-1.1.3zm1.6-4.3h-.8c-.1-.6.2-.8.3-1.1.4 0 .6.4.5 1.1zm-.5-6.9c.1-.7.7.3 1.1.3-.3.9-.8-.3-1.1-.3zm1.1-2.8c1.8 2.1-1-1.1 0 0zm.2 6.3v-.9c.3.2.7.3 1.1.3 0 .5-.4.6-1.1.6zm.3-3.8c.4.6 1.6.5 1.6 1.4-1.1.2-1.7-.2-1.6-1.4zm1.1-.8c.3-.9 1.8.7.8 1.1-1.1.5-.1-1.2-.8-1.1zm1.4 23.7c-.1.6-.5.2-.3-.9.2-.8.3.7.3.9zm1.3-4.8c-.7 0-.8-.4-1.4-.6.3-.7 1.8-.3 1.4.6zm.6 14.2c1 .9-.8 1 0 0zM75.2 89c.2-.6 1.4-.1 1.1-1.1.4.1.1.9.5.9-.3.6-.9.4-1.6.2zm1.4 28c.8-1.1.9.8 0 0zm0-3.5c-.1-.2.1-.3.3-.3v-.2h.5v-.6c0-.3.1-.5.3-.6.7 0 1 .5 1.4.9l-.4.3.1.5h-2.2zm.8 10.3c.1-.6.7-.6.8-1.1.8.3.1 1.5-.8 1.1zm1.9-4v-.3H79c-.1-.3-.2-.5-.5-.6 0-.3.3-.2.5-.3v-.6h.3v-.3c.5.1.7.6 1.4.6 0 1.1-.8 1.2-1.4 1.5zm2.8 4l-.4-.1-.4.1c-1.6-.6 0-2.1 1.4-2 .1.7-.1 1.5-.6 2zm.5-4.6l.1-.4-.4-.1v-1.1h.8v-.6h.3v-.3c.6.5.1 2 .5 2.6l-1.3-.1zm2.5 18.9c1.6.4-1 1.4 0 0zm-1.1-.8c-.7-.4 1.1-1.4 1.6-.6.1.8-1.7-.2-1.6.6zm1.6-14.6c.2-.3.6-.3.5-.9.5.4.7 1.1.3 1.6 0 0 0 .1-.1.1-.5.1-.2-.8-.7-.8zm.9 9.1c-.5-.2.3-.2.3-.6.3-.8.3.9-.3.6zm.2-14.5c-.2-1.9 1-2.4 1.9-3.1.4.6.3 1.8 1.1 2l-.1.4.4.1c-.1.4-.4.7-.8.9v-.3h-.3c-.4-.5-1.1.2-2.2 0zm1.9 18.5c-.9-.5.6-.9.5-1.4 1.4.5-.3.8-.5 1.4zm2 5.2c-.7.4-1.1-.8-1.4 0-.8-.8.7-1.6.8-2.3.5.3.5 1 .8 1.4l-.4.3.2.6zm3 3.4v-.3h-.3c-.5-.2-.6-.8-.4-1.3 0-.1.1-.1.1-.2-.9.7-1.3-1-1.9-1.4l.1-.4-.1-.4c.7.2-.2-1.4.5-1.1 1.1-.1 1.4 1.7 2.2.3l.3.4.5-.1c.6 1.5.2 3.3-1 4.5zm1.6-17.4c1.3.2-.2 1.7 0 0zm-.3-.3c-1.2-.4 0-.9 0-1.7.6-.1.3.8.8.9.2.6-1.2-.2-.8.8zm2-2v1.1c-.3 0-.2-.4-.3-.6-.2-.1-.3.1-.3.3-.4-.2-.4-.9-.5-1.4.5 0 .3.8 1.1.6zm-.9 12.6c-.3-.4-.1-.5 0-.9.8.4-.1 3.4 0 .9zm.9 10.5l-.1-.4-.4.1c-.2-1 .4-1.1.3-2 1 0 .4 1.7 1.6 1.4-.5.4-.8.9-1.4.9zm1.6-2.8c-.4-.3-.6-.7-.5-1.1.4 0 .6.4.5 1.1zm.3-6.9c-.7-.1-.6.5-1.4.3 0-.8-.1-1.6.3-2 .5.4 1.2.6 1.1 1.7zm.5-4.7l-.3.1c0-.8-.1-1.9.3-2.3.5.4 1.1.6 1.1 1.4l-.1.3.1.3c-.2.2-.5.3-.8.3l-.3-.1zm1.4 9.3l-.3-.4-.5.1c-.1-.6 0-1.2.3-1.7l.4.1.1-.4h.3l.1.4.1-.4c.6-.1.1 1 .3 1.4l-.4.1.1.4c-.2.2-.2.4-.5.4zm.8 1.7l.4.1.1-.4c.3 0 .5-.1.5-.3.5.3.3 1.2.5 1.7-.5-.5-.4 0-1.1 0h-.3v.3c-.4.1 0-1-.1-1.4zm2.2 5.2l-.3-.2-.3.2c-.8-.2-.5-.2-1.4 0v-.3h-.3c.2-1.4 1.3-1.8 1.6-3.1.9.4 1.2 2.4.7 3.4zm-1.1-24.9l.1-.4-.4.1c0-.3-.3-.2-.5-.3-.1-.7.5-.6.3-1.4.8.1 1.2.7 1.9.9-.3.6-.6 1.1-1.4 1.1zm.3-3.2c.4-.6 2.2-.9 2.5 0l-.1.4.4.1c-.1.4-.5.4-.5.9-1.3 0-1.1-1.4-2.3-1.4zm2.2 6.3c0-.1.6-.5.8-.3.2.2-1.1.8-.8.3zm.8 8.3c-1.5-2.8 2.8-2.9 4.6-4 1.4.9-1.4 2.1-1.1 3.7-1.2-.1-2.4 0-3.5.3zm4.6 11.2c-.8.1-1.2.5-1.1 1.4-.6-.2-.7-1-1.1-1.4l.4-.1-.1-.4c.1-.3.2-.5.5-.6l.4.1.1-.4c.4.1.7.5.8.9l-.1.3.2.2zm1.4 2.3l-.4-.2-.4.2c.2-.8-.4-.7-.3-1.4l.4.1-.1-.4c.9-.5.2-1.1.3-2.3 1.6-.2 1.8 1.8 2.2 2-.7.5-1.1 1.3-1.7 2zm2.2-4.6c.1-1.2-.2-2.1-1.1-2.3.6-.8 2 0 2.5.3l.1.4.4-.1c.1.4.7.2 1.1.3-.1.2-.3.3-.3.6l-.4-.1.1.4c-1.3-.4-1.1.8-2.4.5zm1.4 7.7c-.7-.2.5-.8.3-1.4.8.3-.3 1.1-.3 1.4zm0-2.6c-.8-.5 0-1.6.8-1.4.2 1-1.1.4-.8 1.4zm3.5 1.2v.9l-.4-.1.1.4c-.7-.1-.6.5-1.4.3l-.1-.7-.7.1c0-.4 0-.8.3-.9l.1.4.1-.4c.4-.1.7-.5.8-.9v-.3h-.3c.4-.3.3-1.2 1.1-1.1l-.1.4.4.2c-.3.9.6.5 1.1.6 0 .6-.1 1.3-1 1.1zm.3-5.5c.6.1.7.6 1.1.9-.1.5-1.2-.3-1.1-.9zm1.1-.8c.1-.9.8-1.1 1.1-1.7l.1.4.1-.4c.8.4.8 1.6.8 2.9-1.3.2-1.5-.7-2.1-1.2zm2.7 4.6c-1.3-.1-1.2-1.6-2.2-2-.2-.7 2.4 0 1.4-.6.5-.6 1.1 1.1 1.1 2l-.4.1.1.5zm.3-6.9c.4.8 1.9.5 1.9 1.7h-.3v.3c-.1.3-.2.5-.5.6l-.4-.7-.7.1v-2zm1.1 5.4l-.1-.4-.4.1c.2-1-.4-1.1-.3-2l.5.1.3-.4c.5.3.8.7 1.4.9-.2.8-.7 1.4-1.4 1.7zm1.9 4c.4-.5.6-1.1 1.4-1.1-.4.5-.6 1.1-1.4 1.1zm3-10.3l-.1-.4-.4.1v-1.1c.5 0 .3.8 1.1.6l.5.2.3-.5c.6.2.6.4.3.9l-.4-.1.1.4c-.4 1.1-.6-.1-1.4-.1zm2.5 7.5l-.1-.4-.4.1c.1-.7-.1-1.1-.6-1.1.3-.5.8-.7 1.4-.6l-.1.4.4.1c0 .6-.2 1.1-.6 1.5zm.1-15.6l.1.4c-.2.4.3 1.5-.3 1.4l-.4-.6-.4.6h-.5l.1-.4-.4-.1c.7-.5.4-.8.5-2.3.6.1 1.2.4 1.6.9l-.3.1zm2.1-2.4h-.8c.8-1.1-1.1-1.2-.3-2.3-.4.2-.8.5-1.1.9l-.4-.1.1.4c-.7.2-.5-.6-1.1-.6-.1-.8.6-.9.5-1.7l.4-.1-.4-.1c.4-.5-.3-1 .5-1.4-.2.6.7 1.3.8.6l.4.1.1-.4c.3.2.7.3 1.1.3.2-1-.6-1.4-1.1-.9h-.5v.6c-1.2-.1-.5-2.7.8-2l.4-.1-.1-.4h1.1v-.6l.1-.4.1-.4c.5.6 2.2-.1 2.7.6l-.1.4.1.4c-.2.2-.2.8-.5.9-.4-.7-2.2.3-1.4.9l-.4.1.1.4c-.7 1.5.8.9.3 0l.4-.1-.1-.4c.9-.5 2.5-1.6 3.3-.6l-.1.5.4.3c.2 1.5-1.5 1.1-1.9 2l-.4-.1.1.4c-.2.2-.5.3-.8.3.5.7-.3 1 .3 1.4-.6 1.1-.7-.7-1.6-.3-1 .2.1.9-.5 1.4l-.4-.1-.1.2z" data-color="1" class="icon1"></path><path d="M78.4 111.4c1.5-1.1 3-2.2 4.5-3.4l4.5-3.3 4.5-3.3 4.5-3.2c5.9-4.5 11.9-8.7 17.9-12.9l4.5-3.1c1.5-1.1 3-2.1 4.5-3l9.1-5.9 4.6-2.7c1.5-.8 3.1-1.7 4.6-2.5 3-1.7 6.2-3.1 9.4-4.3 3.1-1.2 6.3-2 9.6-2.1 1.6-.1 3.2.2 4.7.8 1.6.6 2.9 1.8 3.8 3.3l.8-.2c-.6-2-1.9-3.8-3.6-5-1.6-1.1-3.3-1.8-5.2-2.1-3.6-.6-7.2-.4-10.7.3-7.1 1.7-13.9 4.2-20.4 7.6-6.6 3.3-12.9 7.1-19.2 11.1-6.2 4.1-12.4 8.3-18.5 12.7-12.1 9-23.8 18.5-35.4 28.4l-8.6 7.5c-2.9 2.5-5.7 5.1-8.6 7.6-5.7 5.1-13.9 13.1-19.6 18.2l.5.8c13-7.7 27.8-19.1 39.9-27.9 6-4.4 11.8-9.1 17.9-13.4z" data-color="2" class="icon2"></path><path d="M109.1 117.6c11.2-7.2 22.2-14.8 33.1-22.3 5.5-3.8 10.9-7.6 16.4-11.3 2.7-1.9 5.5-3.6 8.3-5.3 1.4-.8 2.8-1.5 4.2-2.2.7-.3 1.4-.6 2.1-.8l.5-.1h.5c.2 0 .5.1.7.1h.8c0-.4-.2-.7-.5-1-.2-.2-.4-.3-.6-.4-.2-.1-.4-.1-.6-.2l-.6-.1c-.8 0-1.7 0-2.5.2-1.6.3-3.2.7-4.7 1.2-3.1 1.1-6.1 2.3-9.1 3.7-6 2.8-11.8 5.9-17.6 9.2-11.6 6.5-22.9 13.6-34.2 20.8-11.2 7.3-22.3 14.9-33.4 22.5-5.5 3.8-11 7.7-16.5 11.6l-16.4 12 .4.8c12.4-4.9 24.1-11.2 35.7-17.7 11.5-6.5 22.8-13.5 34-20.7z" data-color="2" class="icon2"></path><path d="M178.6 86.2c-4.4 3.5-9 6.8-13.5 10.1-4.6 3.3-9.2 6.4-13.8 9.5-9.3 6.2-18.7 12.1-28.3 17.7-4.8 2.9-9.5 5.7-14.3 8.5-4.8 2.8-9.6 5.5-14.4 8.1-9.7 5.3-19.4 10.4-29.2 15.5l.3.9c5.4-1 10.8-2.2 16-3.9 5.2-1.7 10.4-3.5 15.5-5.6 5.1-2.1 10.1-4.4 15-6.9 2.5-1.3 4.9-2.6 7.4-3.9l7.3-4.2c9.7-5.8 19-12.4 27.8-19.6 4.4-3.7 8.8-7.6 12.9-11.8 4.3-4.2 8.2-8.8 11.8-13.7l-.5-.7z" data-color="2" class="icon2"></path></g></g>
        </svg>
      </g><g opacity="1" transform="rotate(0 143.5672 23.231600000000014)">
        <svg width="252.4328" height="33.919" x="143.5672" y="23.231600000000014" version="1.1" preserveAspectRatio="none" viewBox="3.8 -30.64 231.6 31.12">
          <g transform="matrix(1 0 0 1 0 0)" class="aD6z1nYkhcolor"><path d="M3.80 0L3.80-29.44L12.60-29.44Q18.24-29.44 21.88-27.26Q25.52-25.08 27.18-21.62Q28.84-18.16 28.84-14.20L28.84-14.20Q28.84-9.96 26.84-6.72Q24.84-3.48 21.46-1.74Q18.08 0 14.04 0L14.04 0L3.80 0ZM9.60-5.60L13.04-5.60Q17.56-5.60 20.20-7.92Q22.84-10.24 22.84-14.60L22.84-14.60Q22.84-18.12 21.38-20.20Q19.92-22.28 17.98-23.08Q16.04-23.88 14.32-23.88L14.32-23.88L9.60-23.88L9.60-5.60Z M42.44-4.28Q44.12-4.28 45.92-5.44L45.92-5.44L48.40-1.28Q46.96-0.48 45.36 0Q43.76 0.48 42.32 0.48L42.32 0.48Q39.20 0.48 36.94-0.70Q34.68-1.88 33.52-4.02Q32.36-6.16 32.36-8.92L32.36-8.92Q32.36-11.48 33.70-13.64Q35.04-15.80 37.36-17.06Q39.68-18.32 42.44-18.32L42.44-18.32Q46.20-18.32 48.62-16.12Q51.04-13.92 51.76-9.84L51.76-9.84L38.96-5.76Q40.24-4.28 42.44-4.28L42.44-4.28ZM42-13.96Q40.12-13.96 39-12.68Q37.88-11.40 37.88-9.24L37.88-9.24L37.88-8.88L45.56-11.48Q44.72-13.96 42-13.96L42-13.96Z M56.76-29.44L75.16-29.44L75.16-23.84L62.56-23.84L62.56-17.16L73.48-17.16L73.48-11.56L62.56-11.56L62.56 0L56.76 0L56.76-29.44Z M79.84-17.48L85.44-17.48L85.44 0L79.84 0L79.84-17.48ZM79.72-23.68Q79.72-24.88 80.66-25.70Q81.60-26.52 82.80-26.52L82.80-26.52Q83.96-26.52 84.88-25.70Q85.80-24.88 85.80-23.68L85.80-23.68Q85.80-22.48 84.88-21.68Q83.96-20.88 82.80-20.88L82.80-20.88Q81.60-20.88 80.66-21.68Q79.72-22.48 79.72-23.68L79.72-23.68Z M105.12-29.44L110.92-29.44L110.92-5.60L124.76-5.60L124.76 0L105.12 0L105.12-29.44Z M147.60 0L145.32-5.76L135.56-5.76L133.16 0L127.44 0L140.72-30.60L141.04-30.60L154.32 0L147.60 0ZM137.60-10.64L143.40-10.64L140.56-17.80L137.60-10.64Z M154.20-29.44L174.04-29.44L174.04-23.84L166.88-23.84L166.88 0L161.08 0L161.08-23.84L154.20-23.84L154.20-29.44Z M194.08 0L191.80-5.76L182.04-5.76L179.64 0L173.92 0L187.20-30.60L187.52-30.60L200.80 0L194.08 0ZM184.08-10.64L189.88-10.64L187.04-17.80L184.08-10.64Z M235.32-30.64L235.40-30.64L235.40 0L229.60 0L229.60-14.04L220-0.40L219.92-0.40L210.68-13.16L210.68 0L205.08 0L205.08-30.64L205.12-30.64L220.04-9.48L235.32-30.64Z"></path></g>
        </svg>
      </g></svg>